<?xml version="1.0" standalone="no"?>
<!DOCTYPE svg PUBLIC "-//W3C//DTD SVG 20010904//EN"
 "http://www.w3.org/TR/2001/REC-SVG-20010904/DTD/svg10.dtd">
<svg version="1.0" xmlns="http://www.w3.org/2000/svg"
 width="512.000000pt" height="512.000000pt" viewBox="0 0 512.000000 512.000000"
 preserveAspectRatio="xMidYMid meet">

<g transform="translate(0.000000,512.000000) scale(0.100000,-0.100000)"
fill="#000000" stroke="none">
<path d="M0 2560 l0 -2560 2560 0 2560 0 0 2560 0 2560 -2560 0 -2560 0 0
-2560z m4018 2077 c196 -69 353 -227 413 -417 13 -40 23 -104 26 -166 7 -128
-13 -223 -69 -337 -40 -82 -43 -85 -1387 -1430 -740 -741 -1359 -1356 -1376
-1366 -16 -11 -232 -69 -480 -131 -484 -120 -490 -121 -567 -77 -22 11 -52 40
-67 64 -53 80 -53 84 69 574 73 293 119 458 135 484 37 62 2668 2686 2737
2729 126 79 230 107 383 102 86 -3 126 -9 183 -29z m511 -3557 c150 -76 154
-287 8 -371 l-42 -24 -975 -3 c-715 -2 -986 0 -1017 9 -179 49 -207 299 -44
386 l44 23 994 0 c969 0 995 0 1032 -20z"/>
<path d="M3739 4236 c-20 -7 -49 -22 -65 -34 -16 -11 -606 -598 -1310 -1304
l-1282 -1283 -51 -209 c-29 -115 -49 -211 -47 -214 3 -2 99 19 214 48 l209 52
1305 1306 c1406 1409 1328 1325 1328 1428 0 146 -163 259 -301 210z"/>
</g>
</svg>
