<?xml version="1.0" encoding="UTF-8" standalone="no"?>
<!-- Created with Inkscape (http://www.inkscape.org/) -->

<svg
   xmlns:dc="http://purl.org/dc/elements/1.1/"
   xmlns:cc="http://creativecommons.org/ns#"
   xmlns:rdf="http://www.w3.org/1999/02/22-rdf-syntax-ns#"
   xmlns:svg="http://www.w3.org/2000/svg"
   xmlns="http://www.w3.org/2000/svg"
   xmlns:sodipodi="http://sodipodi.sourceforge.net/DTD/sodipodi-0.dtd"
   xmlns:inkscape="http://www.inkscape.org/namespaces/inkscape"
   width="24"
   height="24"
   id="svg4830"
   version="1.1"
   inkscape:version="0.92.4 (5da689c313, 2019-01-14)"
   inkscape:export-filename="/home/joker/Project/Scratcheck/TestExport.png"
   inkscape:export-xdpi="90"
   inkscape:export-ydpi="90"
   sodipodi:docname="ic_attachment_broken.svg">
  <defs
     id="defs4832" />
  <sodipodi:namedview
     id="base"
     pagecolor="#acacac"
     bordercolor="#666666"
     borderopacity="1.0"
     inkscape:pageopacity="0"
     inkscape:pageshadow="2"
     inkscape:zoom="15.999999"
     inkscape:cx="9.9882808"
     inkscape:cy="7.7944656"
     inkscape:current-layer="g4770"
     showgrid="true"
     inkscape:grid-bbox="true"
     inkscape:document-units="px"
     inkscape:window-width="1920"
     inkscape:window-height="1016"
     inkscape:window-x="1920"
     inkscape:window-y="74"
     inkscape:window-maximized="1">
    <sodipodi:guide
       position="0.99999471,22.999999"
       orientation="22,0"
       id="guide2987"
       inkscape:locked="false" />
    <sodipodi:guide
       position="0.99999471,0.99999888"
       orientation="0,22"
       id="guide2989"
       inkscape:locked="false" />
    <sodipodi:guide
       position="22.999995,0.99999888"
       orientation="-22,0"
       id="guide2991"
       inkscape:locked="false" />
    <sodipodi:guide
       position="39,23"
       orientation="0,-22"
       id="guide2993"
       inkscape:locked="false" />
    <inkscape:grid
       type="xygrid"
       id="grid2989" />
  </sodipodi:namedview>
  <metadata
     id="metadata4835">
    <rdf:RDF>
      <cc:Work
         rdf:about="">
        <dc:format>image/svg+xml</dc:format>
        <dc:type
           rdf:resource="http://purl.org/dc/dcmitype/StillImage" />
        <dc:title></dc:title>
      </cc:Work>
    </rdf:RDF>
  </metadata>
  <g
     id="layer1"
     inkscape:label="Layer 1"
     inkscape:groupmode="layer"
     transform="translate(0,-8)">
    <g
       id="g4770"
       transform="matrix(1.7777778,0,0,1.7777778,-205.48441,-31.997877)">
      <g
         id="Layer_1"
         transform="matrix(-0.00397893,0,0,0.00397893,125.58386,23.674135)" />
      <path
         style="stroke-width:0.02762278;fill:#ffffff;fill-opacity:1"
         d="m 121.54264,23.061306 c -1.29654,0 -2.35766,1.061245 -2.35766,2.357666 v 4.94165 l 0.8844,-0.349365 v -4.592285 c 0,-0.824955 0.64832,-1.473267 1.47326,-1.473267 0.82493,0 1.47217,0.648312 1.47217,1.473267 v 2.302734 l 0.8844,-0.349365 v -1.953369 c 0,-1.296421 -1.06,-2.357666 -2.35657,-2.357666 z m 3.24097,2.6521 v 1.308471 l 0.8833,-0.348266 v -0.960205 z m -3.83093,0.8833 v 3.065186 l 0.8844,-0.349366 v -2.71582 z m 4.71423,2.496094 -0.8833,0.349365 v 2.753174 c 0,1.296558 -1.0611,2.356567 -2.35766,2.356567 -1.21907,0 -2.21717,-0.940492 -2.3335,-2.130249 l -0.85584,0.33838 c 0.26581,1.524958 1.58534,2.676269 3.18934,2.676269 1.79719,0 3.24096,-1.443745 3.24096,-3.240967 z m -1.7677,0.698731 -0.8844,0.350464 v 2.053344 c 0,0.323986 -0.26487,0.588867 -0.58886,0.588867 -0.32399,0 -0.58887,-0.264881 -0.58887,-0.588867 v -0.463623 l -0.8844,0.349365 v 0.114258 c 2e-5,0.824927 0.64832,1.473267 1.47327,1.473267 0.82496,0 1.47326,-0.64834 1.47326,-1.473267 z"
         id="Icon_3_"
         inkscape:connector-curvature="0" />
    </g>
  </g>
</svg>
