<?xml version="1.0" encoding="UTF-8" standalone="no"?>
<!-- Created with Inkscape (http://www.inkscape.org/) -->

<svg
   xmlns:dc="http://purl.org/dc/elements/1.1/"
   xmlns:cc="http://creativecommons.org/ns#"
   xmlns:rdf="http://www.w3.org/1999/02/22-rdf-syntax-ns#"
   xmlns:svg="http://www.w3.org/2000/svg"
   xmlns="http://www.w3.org/2000/svg"
   xmlns:sodipodi="http://sodipodi.sourceforge.net/DTD/sodipodi-0.dtd"
   xmlns:inkscape="http://www.inkscape.org/namespaces/inkscape"
   width="24"
   height="24"
   id="svg4830"
   version="1.1"
   inkscape:version="0.92.4 (5da689c313, 2019-01-14)"
   inkscape:export-filename="/home/joker/Project/Scratcheck/TestExport.png"
   inkscape:export-xdpi="90"
   inkscape:export-ydpi="90"
   sodipodi:docname="ic_back_to.svg">
  <defs
     id="defs4832" />
  <sodipodi:namedview
     id="base"
     pagecolor="#acacac"
     bordercolor="#666666"
     borderopacity="1.0"
     inkscape:pageopacity="0"
     inkscape:pageshadow="2"
     inkscape:zoom="15.999999"
     inkscape:cx="0.25001431"
     inkscape:cy="2.6167943"
     inkscape:current-layer="g4770"
     showgrid="true"
     inkscape:grid-bbox="true"
     inkscape:document-units="px"
     inkscape:window-width="1920"
     inkscape:window-height="1016"
     inkscape:window-x="1920"
     inkscape:window-y="74"
     inkscape:window-maximized="1">
    <sodipodi:guide
       position="0.99999471,22.999999"
       orientation="22,0"
       id="guide2987"
       inkscape:locked="false" />
    <sodipodi:guide
       position="0.99999471,0.99999888"
       orientation="0,22"
       id="guide2989"
       inkscape:locked="false" />
    <sodipodi:guide
       position="22.999995,0.99999888"
       orientation="-22,0"
       id="guide2991"
       inkscape:locked="false" />
    <sodipodi:guide
       position="39,23"
       orientation="0,-22"
       id="guide2993"
       inkscape:locked="false" />
    <inkscape:grid
       type="xygrid"
       id="grid2989" />
  </sodipodi:namedview>
  <metadata
     id="metadata4835">
    <rdf:RDF>
      <cc:Work
         rdf:about="">
        <dc:format>image/svg+xml</dc:format>
        <dc:type
           rdf:resource="http://purl.org/dc/dcmitype/StillImage" />
        <dc:title />
      </cc:Work>
    </rdf:RDF>
  </metadata>
  <g
     id="layer1"
     inkscape:label="Layer 1"
     inkscape:groupmode="layer"
     transform="translate(0,-8)">
    <g
       id="g4770"
       transform="matrix(1.7777778,0,0,1.7777778,-205.48441,-31.997877)">
      <g
         id="Layer_1"
         transform="matrix(-0.00397893,0,0,0.00397893,125.58386,23.674135)" />
      <path
         style="fill:#ffffff;fill-opacity:1;stroke:none;stroke-width:1.78885484;stroke-miterlimit:4;stroke-dasharray:none;stroke-dashoffset:0;stroke-opacity:1"
         d="M 9.6582031 2.3417969 C 9.4025809 2.3417969 9.1470385 2.4408503 8.9511719 2.6367188 L 3.2929688 8.2929688 C 2.9012354 8.6847056 2.9012354 9.3152944 3.2929688 9.7070312 L 8.9511719 15.363281 C 9.3429052 15.755018 9.973501 15.755018 10.365234 15.363281 C 10.756968 14.971544 10.756968 14.340956 10.365234 13.949219 L 6.4160156 10 L 16 10 L 16 10.03125 A 4.5000001 4.5000001 0 0 1 20 14.5 A 4.5000001 4.5000001 0 0 1 16 18.966797 L 16 19 L 7 19 C 6.4460006 19 6 19.446001 6 20 C 6 20.553999 6.4460006 21 7 21 L 16 21 C 16.123984 21 16.240233 20.970575 16.349609 20.929688 A 6.5000001 6.5000001 0 0 0 22 14.5 A 6.5000001 6.5000001 0 0 0 16 8.0214844 L 16 8 L 6.4160156 8 L 10.365234 4.0507812 C 10.756968 3.6590444 10.756968 3.0284556 10.365234 2.6367188 C 10.169368 2.4408503 9.9138254 2.3417969 9.6582031 2.3417969 z "
         transform="matrix(0.56249999,0,0,0.56249999,115.58498,22.498806)"
         id="rect820" />
    </g>
  </g>
</svg>
