<?xml version="1.0" encoding="UTF-8" standalone="no"?>
<svg
   xmlns:dc="http://purl.org/dc/elements/1.1/"
   xmlns:cc="http://creativecommons.org/ns#"
   xmlns:rdf="http://www.w3.org/1999/02/22-rdf-syntax-ns#"
   xmlns:svg="http://www.w3.org/2000/svg"
   xmlns="http://www.w3.org/2000/svg"
   xmlns:sodipodi="http://sodipodi.sourceforge.net/DTD/sodipodi-0.dtd"
   xmlns:inkscape="http://www.inkscape.org/namespaces/inkscape"
   width="24"
   height="24"
   viewBox="0 0 24 24"
   version="1.1"
   id="svg4"
   sodipodi:docname="ic_current_group.svg"
   inkscape:version="0.92.4 (5da689c313, 2019-01-14)">
  <metadata
     id="metadata10">
    <rdf:RDF>
      <cc:Work
         rdf:about="">
        <dc:format>image/svg+xml</dc:format>
        <dc:type
           rdf:resource="http://purl.org/dc/dcmitype/StillImage" />
        <dc:title></dc:title>
      </cc:Work>
    </rdf:RDF>
  </metadata>
  <defs
     id="defs8" />
  <sodipodi:namedview
     pagecolor="#c8c8c8"
     bordercolor="#666666"
     borderopacity="1"
     objecttolerance="10"
     gridtolerance="10"
     guidetolerance="10"
     inkscape:pageopacity="0.28235294"
     inkscape:pageshadow="2"
     inkscape:window-width="1920"
     inkscape:window-height="1016"
     id="namedview6"
     showgrid="true"
     inkscape:zoom="16.000001"
     inkscape:cx="-3.2205535"
     inkscape:cy="8.6694093"
     inkscape:window-x="1920"
     inkscape:window-y="27"
     inkscape:window-maximized="1"
     inkscape:current-layer="svg4">
    <inkscape:grid
       type="xygrid"
       id="grid818" />
  </sodipodi:namedview>
  <g
     id="g883"
     transform="matrix(0.0163282,0,0,0.0163282,5.836718,4.12103)">
    <path
       style="fill:#ffffff;fill-opacity:1;stroke-width:0.0163282"
       d="M 2.5,1 C 2.223,1 2,1.223 2,1.5 v 12 9 C 2,22.777 2.223,23 2.5,23 2.777,23 3,22.777 3,22.5 V 14 h 3 v 2.474609 C 6,17.313879 6.6858008,18 7.5234375,18 H 20.476562 C 21.314199,18 22,17.314199 22,16.476562 V 9.8085938 C 22,8.9709571 21.314199,8.2851562 20.476562,8.2851562 H 14 L 12.476562,6.5703125 H 7.5234375 C 6.6858008,6.5703125 6,7.2561133 6,8.09375 V 13 H 3 V 1.5 C 3,1.223 2.777,1 2.5,1 Z"
       transform="matrix(61.243738,0,0,61.243738,-357.46243,-252.38728)"
       id="path881"
       inkscape:connector-curvature="0" />
  </g>
</svg>
