<?xml version="1.0" encoding="UTF-8" standalone="no"?>
<!-- Created with Inkscape (http://www.inkscape.org/) -->

<svg
   xmlns:dc="http://purl.org/dc/elements/1.1/"
   xmlns:cc="http://creativecommons.org/ns#"
   xmlns:rdf="http://www.w3.org/1999/02/22-rdf-syntax-ns#"
   xmlns:svg="http://www.w3.org/2000/svg"
   xmlns="http://www.w3.org/2000/svg"
   xmlns:sodipodi="http://sodipodi.sourceforge.net/DTD/sodipodi-0.dtd"
   xmlns:inkscape="http://www.inkscape.org/namespaces/inkscape"
   inkscape:export-ydpi="22.5"
   inkscape:export-xdpi="22.5"
   inkscape:export-filename="/home/joker/Projects/Kunzisoft/Inkscape/Android Icon Template_low"
   id="svg2"
   version="1.1"
   inkscape:version="0.92.1 r15371"
   xml:space="preserve"
   width="24"
   height="24"
   viewBox="0 0 24 24"
   sodipodi:docname="ic_clipboard_notification.svg"><sodipodi:namedview
     pagecolor="#d7d7d7"
     bordercolor="#666666"
     borderopacity="1"
     objecttolerance="10"
     gridtolerance="10"
     guidetolerance="10"
     inkscape:pageopacity="0"
     inkscape:pageshadow="2"
     inkscape:window-width="1920"
     inkscape:window-height="1043"
     id="namedview4"
     showgrid="true"
     inkscape:zoom="22.627418"
     inkscape:cx="10.438259"
     inkscape:cy="9.4042861"
     inkscape:window-x="0"
     inkscape:window-y="47"
     inkscape:window-maximized="1"
     inkscape:current-layer="layer4"
     showguides="false"
     inkscape:pagecheckerboard="true"><inkscape:grid
       type="xygrid"
       id="grid4818" /></sodipodi:namedview><metadata
     id="metadata8"><rdf:RDF><cc:Work
         rdf:about=""><dc:format>image/svg+xml</dc:format><dc:type
           rdf:resource="http://purl.org/dc/dcmitype/StillImage" /><dc:title /></cc:Work></rdf:RDF></metadata><defs
     id="defs6" /><g
     inkscape:groupmode="layer"
     id="layer4"
     inkscape:label="Work"
     style="display:inline"
     transform="translate(0,-169.5)"><path
       style="fill:#ffffff;fill-opacity:1"
       d="M 5 2 C 3.9 2 3 2.9 3 4 L 3 17 L 4.1289062 17 C 4.2851313 16.264596 4.5812075 15.561581 5 14.9375 L 5 4 L 15 4 L 15 2 L 5 2 z M 9 6 C 7.9 6 7 6.9 7 8 L 7 13.111328 C 7.6195182 12.769775 8.2992947 12.542892 9 12.441406 L 9 8 L 18 8 L 18 14.90625 L 20 14.90625 L 20 8 C 20 6.9 19.1 6 18 6 L 9 6 z M 9.8125 14.375 C 8.7596432 14.375 7.861473 14.747902 7.1171875 15.492188 C 6.372902 16.236473 6 17.134643 6 18.1875 C 6 19.240357 6.372902 20.138527 7.1171875 20.882812 C 7.861473 21.627098 8.7596432 22 9.8125 22 C 10.646785 22 11.391161 21.767924 12.046875 21.300781 C 12.702589 20.835067 13.159397 20.223035 13.417969 19.46875 L 16.1875 19.46875 L 16.1875 21.998047 L 18.71875 21.998047 L 18.71875 19.466797 L 20 19.466797 L 20 16.90625 L 13.417969 16.90625 C 13.159397 16.151965 12.702589 15.541361 12.046875 15.074219 C 11.391161 14.607076 10.646785 14.375 9.8125 14.375 z M 9.8125 16.904297 C 10.151071 16.904297 10.44846 17.032444 10.707031 17.291016 C 10.965603 17.549587 11.09375 17.848404 11.09375 18.185547 C 11.09375 18.524118 10.965603 18.821507 10.707031 19.080078 C 10.44846 19.338649 10.149643 19.466797 9.8125 19.466797 C 9.4753572 19.466797 9.1821651 19.338649 8.9335938 19.080078 C 8.6850224 18.821507 8.5605469 18.52269 8.5605469 18.185547 C 8.5605469 17.846976 8.6850224 17.549587 8.9335938 17.291016 C 9.1821651 17.032444 9.4753572 16.904297 9.8125 16.904297 z "
       transform="translate(0,169.5)"
       id="path4860" /><g
       id="g4824"
       transform="matrix(0.01428571,0,0,0.01428571,5.8571429,178.54429)" /></g></svg>