<?xml version="1.0" encoding="UTF-8" standalone="no"?>
<!-- Created with Inkscape (http://www.inkscape.org/) -->

<svg
   xmlns:dc="http://purl.org/dc/elements/1.1/"
   xmlns:cc="http://creativecommons.org/ns#"
   xmlns:rdf="http://www.w3.org/1999/02/22-rdf-syntax-ns#"
   xmlns:svg="http://www.w3.org/2000/svg"
   xmlns="http://www.w3.org/2000/svg"
   xmlns:sodipodi="http://sodipodi.sourceforge.net/DTD/sodipodi-0.dtd"
   xmlns:inkscape="http://www.inkscape.org/namespaces/inkscape"
   width="24"
   height="24"
   id="svg4830"
   version="1.1"
   inkscape:version="0.92.4 (5da689c313, 2019-01-14)"
   inkscape:export-filename="/home/joker/Project/Scratcheck/TestExport.png"
   inkscape:export-xdpi="90"
   inkscape:export-ydpi="90"
   sodipodi:docname="ic_device_unlock_notification.svg">
  <defs
     id="defs4832" />
  <sodipodi:namedview
     id="base"
     pagecolor="#acacac"
     bordercolor="#666666"
     borderopacity="1.0"
     inkscape:pageopacity="0"
     inkscape:pageshadow="2"
     inkscape:zoom="22.627417"
     inkscape:cx="3.1581538"
     inkscape:cy="10.6837"
     inkscape:current-layer="layer1"
     showgrid="true"
     inkscape:grid-bbox="true"
     inkscape:document-units="px"
     inkscape:window-width="1920"
     inkscape:window-height="1016"
     inkscape:window-x="1920"
     inkscape:window-y="74"
     inkscape:window-maximized="1">
    <sodipodi:guide
       position="0.99999471,22.999999"
       orientation="22,0"
       id="guide2987"
       inkscape:locked="false" />
    <sodipodi:guide
       position="0.99999471,0.99999888"
       orientation="0,22"
       id="guide2989"
       inkscape:locked="false" />
    <sodipodi:guide
       position="22.999995,0.99999888"
       orientation="-22,0"
       id="guide2991"
       inkscape:locked="false" />
    <sodipodi:guide
       position="22.999995,22.999999"
       orientation="0,-22"
       id="guide2993"
       inkscape:locked="false" />
    <inkscape:grid
       type="xygrid"
       id="grid2989" />
  </sodipodi:namedview>
  <metadata
     id="metadata4835">
    <rdf:RDF>
      <cc:Work
         rdf:about="">
        <dc:format>image/svg+xml</dc:format>
        <dc:type
           rdf:resource="http://purl.org/dc/dcmitype/StillImage" />
        <dc:title />
      </cc:Work>
    </rdf:RDF>
  </metadata>
  <g
     id="layer1"
     inkscape:label="Layer 1"
     inkscape:groupmode="layer"
     transform="translate(0,-8)">
    <g
       transform="matrix(-0.00707365,0,0,0.00707365,17.775788,10.089475)"
       id="Layer_1" />
    <path
       style="fill:#ffffff;fill-opacity:1;stroke:none;stroke-width:1px;stroke-linecap:butt;stroke-linejoin:miter;stroke-opacity:1"
       d="M 13 2 L 8 11 L 11.777344 11 L 11.427734 14.140625 C 11.493169 14.182534 11.563348 14.214452 11.626953 14.259766 C 11.988993 14.517689 12.304 14.824694 12.576172 15.164062 L 16 9 L 12.222656 9 L 13 2 z M 8.8125 14.375 C 7.7596432 14.375 6.861473 14.747902 6.1171875 15.492188 C 5.372902 16.236473 5 17.134643 5 18.1875 C 5 19.240357 5.372902 20.138527 6.1171875 20.882812 C 6.861473 21.627098 7.7596432 22 8.8125 22 C 9.6467855 22 10.391161 21.767924 11.046875 21.300781 C 11.702589 20.835067 12.159397 20.223035 12.417969 19.46875 L 15.1875 19.46875 L 15.1875 21.998047 L 17.71875 21.998047 L 17.71875 19.466797 L 19 19.466797 L 19 16.90625 L 12.417969 16.90625 C 12.159397 16.151965 11.702589 15.541361 11.046875 15.074219 C 10.391161 14.607076 9.6467855 14.375 8.8125 14.375 z M 8.8125 16.904297 C 9.1510713 16.904297 9.4484599 17.032444 9.7070312 17.291016 C 9.9656026 17.549587 10.09375 17.848404 10.09375 18.185547 C 10.09375 18.524118 9.9656026 18.821507 9.7070312 19.080078 C 9.4484599 19.338649 9.1496428 19.466797 8.8125 19.466797 C 8.4753572 19.466797 8.1821651 19.338649 7.9335938 19.080078 C 7.6850224 18.821507 7.5605469 18.52269 7.5605469 18.185547 C 7.5605469 17.846976 7.6850224 17.549587 7.9335938 17.291016 C 8.1821651 17.032444 8.4753572 16.904297 8.8125 16.904297 z "
       transform="translate(0,8)"
       id="path841" />
    <g
       style="display:inline;stroke:none;stroke-width:280.00009155;stroke-miterlimit:4;stroke-dasharray:none"
       transform="matrix(0.01428571,0,0,0.01428571,-15.142861,19.044291)"
       id="g4824" />
    <g
       id="g867"
       transform="matrix(0.01428571,0,0,0.01428571,-15.142861,19.044291)"
       style="display:inline;stroke:#e30000;stroke-width:140.000042;stroke-miterlimit:4;stroke-dasharray:none;stroke-opacity:1" />
  </g>
</svg>
