<?xml version="1.0" encoding="UTF-8" standalone="no"?>
<!-- Created with Inkscape (http://www.inkscape.org/) -->

<svg
   xmlns:dc="http://purl.org/dc/elements/1.1/"
   xmlns:cc="http://creativecommons.org/ns#"
   xmlns:rdf="http://www.w3.org/1999/02/22-rdf-syntax-ns#"
   xmlns:svg="http://www.w3.org/2000/svg"
   xmlns="http://www.w3.org/2000/svg"
   xmlns:sodipodi="http://sodipodi.sourceforge.net/DTD/sodipodi-0.dtd"
   xmlns:inkscape="http://www.inkscape.org/namespaces/inkscape"
   inkscape:export-ydpi="22.5"
   inkscape:export-xdpi="22.5"
   inkscape:export-filename="/home/joker/Projects/Kunzisoft/Inkscape/Android Icon Template_low"
   id="svg2"
   version="1.1"
   inkscape:version="0.92.1 r15371"
   xml:space="preserve"
   width="24"
   height="24"
   viewBox="0 0 24 24"
   sodipodi:docname="ic_database_loading_notification.svg"><sodipodi:namedview
     pagecolor="#d7d7d7"
     bordercolor="#666666"
     borderopacity="1"
     objecttolerance="10"
     gridtolerance="10"
     guidetolerance="10"
     inkscape:pageopacity="0"
     inkscape:pageshadow="2"
     inkscape:window-width="1920"
     inkscape:window-height="1043"
     id="namedview4"
     showgrid="true"
     inkscape:zoom="8.0000005"
     inkscape:cx="-6.6979566"
     inkscape:cy="13.688469"
     inkscape:window-x="0"
     inkscape:window-y="47"
     inkscape:window-maximized="1"
     inkscape:current-layer="layer4"
     showguides="false"
     inkscape:pagecheckerboard="true"><inkscape:grid
       type="xygrid"
       id="grid4818" /></sodipodi:namedview><metadata
     id="metadata8"><rdf:RDF><cc:Work
         rdf:about=""><dc:format>image/svg+xml</dc:format><dc:type
           rdf:resource="http://purl.org/dc/dcmitype/StillImage" /><dc:title></dc:title></cc:Work></rdf:RDF></metadata><defs
     id="defs6" /><g
     inkscape:groupmode="layer"
     id="layer4"
     inkscape:label="Work"
     style="display:inline"
     transform="translate(0,-169.5)"><path
       style="fill:#ffffff;fill-opacity:1;stroke:none;stroke-width:3.60014629;stroke-miterlimit:4;stroke-dasharray:none;stroke-dashoffset:0;stroke-opacity:1"
       d="M 12 3 A 9 9 0 0 0 8.21875 3.84375 L 9.2226562 5.5839844 A 7 7 0 0 1 12 5 A 7 7 0 0 1 19 12 A 7 7 0 0 1 18.728516 13.90625 L 20.785156 13.90625 A 9 9 0 0 0 21 12 A 9 9 0 0 0 12 3 z M 6.5097656 4.8828125 A 9 9 0 0 0 3 12 A 9 9 0 0 0 4.0820312 16.273438 C 4.2366214 15.324774 4.6246965 14.418539 5.2070312 13.654297 A 7 7 0 0 1 5 12 A 7 7 0 0 1 7.5195312 6.6308594 L 6.5097656 4.8828125 z "
       transform="translate(0,169.5)"
       id="path4524" /><g
       style="stroke-width:280.000084;stroke-miterlimit:4;stroke-dasharray:none;stroke:#0a0a0a;stroke-opacity:1;fill:none"
       transform="matrix(0.01428571,0,0,0.01428571,5.8571429,179.54429)"
       id="g4531" /><g
       id="g4824"
       transform="matrix(0.01428571,0,0,0.01428571,-14.142857,179.54429)"
       style="stroke:none;stroke-width:280.00009155;stroke-miterlimit:4;stroke-dasharray:none"><path
         style="fill:#ffffff;fill-opacity:1;stroke:none;stroke-width:280.00009155;stroke-miterlimit:4;stroke-dasharray:none;stroke-opacity:1"
         inkscape:connector-curvature="0"
         d="m 1676.9004,589.6 c 23.6,0 44.5,-9 62.6,-27.1 18.1,-18.1 27.1,-38.9 27.1,-62.6 0,-23.6 -9,-44.5 -27.1,-62.6 -18.1,-18.1 -38.9,-27.1 -62.6,-27.1 -23.6,0 -44.1,9 -61.5,27.1 -17.4,18.1 -26.1,38.9 -26.1,62.6 0,23.6 8.7,44.5 26.1,62.6 17.4,18.1 37.9,27.1 61.5,27.1 z m 252.3,-179.3 h 460.8 v 179.3 h -89.7 v 177.2 h -177.2 V 589.7 h -193.9 c -18.1,52.8 -50,95.6 -95.9,128.2 -45.9,32.7 -98,49 -156.4,49 -73.7,0 -136.6,-26.1 -188.7,-78.2 -52.1,-52.1 -78.2,-115 -78.2,-188.7 0,-73.7 26.1,-136.6 78.2,-188.7 52.1,-52.1 115,-78.2 188.7,-78.2 58.4,0 110.5,16.3 156.4,49 45.9,32.7 77.8,75.4 95.9,128.2 z"
         id="path4836" /></g></g></svg>