<?xml version="1.0" encoding="UTF-8" standalone="no"?>
<!-- Created with Inkscape (http://www.inkscape.org/) -->

<svg
   xmlns:dc="http://purl.org/dc/elements/1.1/"
   xmlns:cc="http://creativecommons.org/ns#"
   xmlns:rdf="http://www.w3.org/1999/02/22-rdf-syntax-ns#"
   xmlns:svg="http://www.w3.org/2000/svg"
   xmlns="http://www.w3.org/2000/svg"
   xmlns:sodipodi="http://sodipodi.sourceforge.net/DTD/sodipodi-0.dtd"
   xmlns:inkscape="http://www.inkscape.org/namespaces/inkscape"
   inkscape:export-ydpi="22.5"
   inkscape:export-xdpi="22.5"
   inkscape:export-filename="/home/joker/Projects/Kunzisoft/Inkscape/Android Icon Template_low"
   id="svg2"
   version="1.1"
   inkscape:version="0.92.1 r15371"
   xml:space="preserve"
   width="24"
   height="24"
   viewBox="0 0 24 24"
   sodipodi:docname="ic_database_open_notification.svg"><sodipodi:namedview
     pagecolor="#d7d7d7"
     bordercolor="#666666"
     borderopacity="1"
     objecttolerance="10"
     gridtolerance="10"
     guidetolerance="10"
     inkscape:pageopacity="0"
     inkscape:pageshadow="2"
     inkscape:window-width="1920"
     inkscape:window-height="1043"
     id="namedview4"
     showgrid="true"
     inkscape:zoom="22.627418"
     inkscape:cx="13.649551"
     inkscape:cy="13.821457"
     inkscape:window-x="0"
     inkscape:window-y="47"
     inkscape:window-maximized="1"
     inkscape:current-layer="layer4"
     showguides="false"
     inkscape:pagecheckerboard="true"><inkscape:grid
       type="xygrid"
       id="grid4818" /></sodipodi:namedview><metadata
     id="metadata8"><rdf:RDF><cc:Work
         rdf:about=""><dc:format>image/svg+xml</dc:format><dc:type
           rdf:resource="http://purl.org/dc/dcmitype/StillImage" /><dc:title></dc:title></cc:Work></rdf:RDF></metadata><defs
     id="defs6" /><g
     inkscape:groupmode="layer"
     id="layer4"
     inkscape:label="Work"
     style="display:inline"
     transform="translate(0,-169.5)"><g
       style="stroke-width:280.000084;stroke-miterlimit:4;stroke-dasharray:none;stroke:#0a0a0a;stroke-opacity:1;fill:none"
       transform="matrix(0.01428571,0,0,0.01428571,5.8571429,179.54429)"
       id="g4531" /><path
       style="stroke-width:0.02143062;fill:#ffffff;fill-opacity:1"
       d="M 12 2 C 9.592834 2 7.5684489 3.7254014 7.1015625 6 L 9.0839844 6 C 9.5058542 4.7867337 10.652056 3.8984375 12.001953 3.8984375 C 13.70139 3.8984375 15.103516 5.2984 15.103516 7 L 15.103516 9 L 6 9 C 4.9006164 9 4 9.8986566 4 10.998047 L 4 14 L 4.9589844 14 C 5.1749868 13.669015 5.4230196 13.358232 5.703125 13.078125 C 6.780379 12.000875 8.287459 11.375 9.8125 11.375 C 11.018931 11.375 12.224623 11.745422 13.207031 12.445312 C 13.763824 12.841985 14.247164 13.34112 14.630859 13.90625 L 20 13.90625 L 20 11 C 20 9.9006 19.099383 9.0019531 18 9.0019531 L 17 9.0019531 L 17 7.0019531 C 17 4.2502431 14.749531 2 12 2 z M 9.8125 13.375 C 8.7596432 13.375 7.861473 13.747902 7.1171875 14.492188 C 6.372902 15.236473 6 16.134643 6 17.1875 C 6 18.240357 6.372902 19.138527 7.1171875 19.882812 C 7.861473 20.627098 8.7596432 21 9.8125 21 C 10.646785 21 11.391161 20.767924 12.046875 20.300781 C 12.702589 19.835067 13.159397 19.223035 13.417969 18.46875 L 16.1875 18.46875 L 16.1875 20.998047 L 18.71875 20.998047 L 18.71875 18.466797 L 20 18.466797 L 20 15.90625 L 13.417969 15.90625 C 13.159397 15.151965 12.702589 14.541361 12.046875 14.074219 C 11.391161 13.607076 10.646785 13.375 9.8125 13.375 z M 9.8125 15.904297 C 10.151071 15.904297 10.44846 16.032444 10.707031 16.291016 C 10.965603 16.549587 11.09375 16.848404 11.09375 17.185547 C 11.09375 17.524118 10.965603 17.821507 10.707031 18.080078 C 10.44846 18.338649 10.149643 18.466797 9.8125 18.466797 C 9.4753572 18.466797 9.1821651 18.338649 8.9335938 18.080078 C 8.6850224 17.821507 8.5605469 17.52269 8.5605469 17.185547 C 8.5605469 16.846976 8.6850224 16.549587 8.9335938 16.291016 C 9.1821651 16.032444 9.4753572 15.904297 9.8125 15.904297 z "
       transform="translate(0,169.5)"
       id="path4566" /><g
       style="stroke:none;stroke-width:280.00009155;stroke-miterlimit:4;stroke-dasharray:none"
       transform="matrix(0.01428571,0,0,0.01428571,5.857143,179.54429)"
       id="g4580" /></g></svg>