<?xml version="1.0" encoding="UTF-8" standalone="no"?>
<!-- Created with Inkscape (http://www.inkscape.org/) -->

<svg
   xmlns:dc="http://purl.org/dc/elements/1.1/"
   xmlns:cc="http://creativecommons.org/ns#"
   xmlns:rdf="http://www.w3.org/1999/02/22-rdf-syntax-ns#"
   xmlns:svg="http://www.w3.org/2000/svg"
   xmlns="http://www.w3.org/2000/svg"
   xmlns:sodipodi="http://sodipodi.sourceforge.net/DTD/sodipodi-0.dtd"
   xmlns:inkscape="http://www.inkscape.org/namespaces/inkscape"
   width="24"
   height="24"
   id="svg4830"
   version="1.1"
   inkscape:version="0.92.1 r15371"
   inkscape:export-filename="/home/joker/Project/Scratcheck/TestExport.png"
   inkscape:export-xdpi="90"
   inkscape:export-ydpi="90"
   sodipodi:docname="ic_fingerprint_remove.svg">
  <defs
     id="defs4832" />
  <sodipodi:namedview
     id="base"
     pagecolor="#acacac"
     bordercolor="#666666"
     borderopacity="1.0"
     inkscape:pageopacity="0"
     inkscape:pageshadow="2"
     inkscape:zoom="16"
     inkscape:cx="5.1117679"
     inkscape:cy="8.7569429"
     inkscape:current-layer="g4770"
     showgrid="true"
     inkscape:grid-bbox="true"
     inkscape:document-units="px"
     inkscape:window-width="1920"
     inkscape:window-height="1043"
     inkscape:window-x="0"
     inkscape:window-y="47"
     inkscape:window-maximized="1">
    <sodipodi:guide
       position="0.99999471,22.999999"
       orientation="22,0"
       id="guide2987"
       inkscape:locked="false" />
    <sodipodi:guide
       position="0.99999471,0.99999888"
       orientation="0,22"
       id="guide2989"
       inkscape:locked="false" />
    <sodipodi:guide
       position="22.999995,0.99999888"
       orientation="-22,0"
       id="guide2991"
       inkscape:locked="false" />
    <sodipodi:guide
       position="22.999995,22.999999"
       orientation="0,-22"
       id="guide2993"
       inkscape:locked="false" />
    <inkscape:grid
       type="xygrid"
       id="grid2989" />
  </sodipodi:namedview>
  <metadata
     id="metadata4835">
    <rdf:RDF>
      <cc:Work
         rdf:about="">
        <dc:format>image/svg+xml</dc:format>
        <dc:type
           rdf:resource="http://purl.org/dc/dcmitype/StillImage" />
        <dc:title></dc:title>
      </cc:Work>
    </rdf:RDF>
  </metadata>
  <g
     id="layer1"
     inkscape:label="Layer 1"
     inkscape:groupmode="layer"
     transform="translate(0,-8)">
    <g
       id="g4770"
       transform="matrix(1.7777778,0,0,1.7777778,-205.48441,-31.997877)">
      <g
         id="Layer_1"
         transform="matrix(-0.00397893,0,0,0.00397893,125.58386,23.674135)" />
      <path
         style="stroke-width:1;fill:#f5f0f0;fill-opacity:1"
         d="M 12.099609 2 C 9.9496186 2 7.9107813 2.5192969 6.0507812 3.5292969 C 5.8107813 3.6592969 5.7196538 3.9709375 5.8496094 4.2109375 C 5.9896094 4.4509375 6.2892969 4.5401474 6.5292969 4.4101562 C 8.239288 3.4701563 10.119609 3 12.099609 3 C 13.817565 3 15.298631 3.3380125 16.904297 4.0605469 L 17.658203 3.3066406 C 15.801889 2.4224054 14.062357 2 12.099609 2 z M 20.630859 2.7929688 C 20.353595 2.7923499 20.076963 2.8957023 19.869141 3.1035156 L 3.6054688 19.367188 C 3.1898243 19.782837 3.1898065 20.478878 3.6054688 20.894531 C 4.0211132 21.310172 4.7171681 21.310181 5.1328125 20.894531 L 21.396484 4.6308594 C 21.812129 4.2152078 21.809482 3.5211096 21.394531 3.1054688 C 21.1867 2.8976421 20.908124 2.7935876 20.630859 2.7929688 z M 12.082031 4.4394531 C 10.290782 4.4419476 8.4996875 4.8501572 6.9296875 5.6601562 C 5.4296875 6.4301563 4.1696964 7.5296875 3.1796875 8.9296875 C 3.0196875 9.1596875 3.0707902 9.4708594 3.3007812 9.6308594 C 3.3907901 9.6908772 3.4897549 9.7207031 3.5898438 9.7207031 C 3.7498437 9.7207031 3.9004687 9.6497656 3.9804688 9.5097656 C 4.8804687 8.2497656 6.0208594 7.2507813 7.3808594 6.5507812 C 9.702879 5.3492128 12.551839 5.1405673 15.080078 5.8847656 L 15.886719 5.078125 C 14.672134 4.6548553 13.378189 4.4376481 12.082031 4.4394531 z M 12.050781 6.8203125 C 8.8207726 6.8203125 5.8690714 8.6299217 4.5390625 11.419922 C 4.0890714 12.369922 3.859375 13.460156 3.859375 14.660156 C 3.859375 15.410156 3.9419325 16.143623 4.0917969 16.873047 L 4.9453125 16.019531 C 4.8716574 15.480855 4.8496094 15.017564 4.8496094 14.660156 C 4.8496094 13.620156 5.049462 12.669375 5.4394531 11.859375 C 6.609462 9.409375 9.2107815 7.8300781 12.050781 7.8300781 C 12.394543 7.8300781 12.729451 7.8605876 13.060547 7.9042969 L 13.931641 7.0332031 C 13.326222 6.8985547 12.698935 6.8203125 12.050781 6.8203125 z M 20.158203 7.8769531 L 19.451172 8.5859375 C 19.705703 8.8667188 19.944922 9.1654687 20.169922 9.4804688 C 20.329922 9.7104775 20.639132 9.7596094 20.869141 9.5996094 C 21.099185 9.4396094 21.150234 9.1203906 20.990234 8.9003906 C 20.732029 8.5378633 20.452607 8.1983122 20.158203 7.8769531 z M 11.673828 9.2910156 C 8.7939582 9.4920753 6.5090655 11.751686 6.4375 14.527344 L 7.6914062 13.273438 C 8.128702 12.047606 9.1093977 11.060938 10.378906 10.585938 L 11.673828 9.2910156 z M 18.388672 9.6464844 L 17.675781 10.359375 C 18.68916 11.534094 19.300781 13.029838 19.300781 14.660156 C 19.300781 15.730156 18.370712 16.599609 17.220703 16.599609 C 16.070712 16.599609 15.140625 15.730156 15.140625 14.660156 C 15.140625 14.156975 14.994276 13.690121 14.759766 13.275391 L 14.017578 14.017578 C 14.091568 14.216693 14.140625 14.427975 14.140625 14.650391 C 14.140625 16.270391 15.520703 17.589844 17.220703 17.589844 C 18.920703 17.589844 20.300781 16.270391 20.300781 14.650391 C 20.300781 12.747816 19.580533 11.0042 18.388672 9.6464844 z M 16.607422 11.427734 L 15.894531 12.140625 C 16.429255 12.855101 16.75 13.721687 16.75 14.660156 C 16.75 14.940156 16.97 15.160156 17.25 15.160156 C 17.53 15.160156 17.75 14.940156 17.75 14.660156 C 17.75 13.447471 17.320928 12.329733 16.607422 11.427734 z M 12.609375 15.425781 L 11.791016 16.244141 C 12.154172 17.361118 12.886314 18.356772 13.910156 19.050781 C 14.770156 19.640781 15.819757 19.939453 17.009766 19.939453 C 17.149766 19.939453 17.650712 19.930321 18.220703 19.820312 C 18.500756 19.770313 18.680815 19.510234 18.630859 19.240234 C 18.58085 18.960243 18.320772 18.780087 18.050781 18.830078 C 17.650781 18.900087 17.249766 18.929687 17.009766 18.929688 C 16.009766 18.929688 15.180694 18.700703 14.470703 18.220703 C 13.475364 17.551704 12.819631 16.540198 12.609375 15.425781 z M 10.615234 17.419922 L 9.8652344 18.169922 C 10.203152 18.79111 10.634087 19.368244 11.150391 19.880859 C 12.240382 20.950859 13.279132 21.540469 14.869141 21.980469 C 14.909141 21.990513 14.96 22 15 22 C 15.210009 22 15.420748 21.849141 15.470703 21.619141 C 15.540694 21.359141 15.38915 21.079757 15.119141 21.009766 C 13.709149 20.619766 12.7996 20.100156 11.849609 19.160156 C 11.332157 18.646984 10.922915 18.056717 10.615234 17.419922 z M 8.796875 19.238281 L 8.0703125 19.964844 C 8.484727 20.580638 8.8928845 21.043281 9.4902344 21.640625 C 9.5802255 21.740643 9.7098882 21.789062 9.8398438 21.789062 C 9.9698525 21.789062 10.100893 21.740625 10.210938 21.640625 C 10.400928 21.440625 10.400928 21.129687 10.210938 20.929688 C 9.6271185 20.338294 9.2322832 19.910321 8.796875 19.238281 z "
         transform="matrix(0.56249999,0,0,0.56249999,115.58498,22.498806)"
         id="path9385" />
    </g>
  </g>
</svg>
