<?xml version="1.0" encoding="UTF-8" standalone="no"?>
<!-- Created with Inkscape (http://www.inkscape.org/) -->

<svg
   xmlns:dc="http://purl.org/dc/elements/1.1/"
   xmlns:cc="http://creativecommons.org/ns#"
   xmlns:rdf="http://www.w3.org/1999/02/22-rdf-syntax-ns#"
   xmlns:svg="http://www.w3.org/2000/svg"
   xmlns="http://www.w3.org/2000/svg"
   xmlns:sodipodi="http://sodipodi.sourceforge.net/DTD/sodipodi-0.dtd"
   xmlns:inkscape="http://www.inkscape.org/namespaces/inkscape"
   width="24"
   height="24"
   id="svg4830"
   version="1.1"
   inkscape:version="0.92.4 (5da689c313, 2019-01-14)"
   inkscape:export-filename="/home/joker/Project/Scratcheck/TestExport.png"
   inkscape:export-xdpi="90"
   inkscape:export-ydpi="90"
   sodipodi:docname="ic_generate_password.svg">
  <defs
     id="defs4832">
    <inkscape:perspective
       sodipodi:type="inkscape:persp3d"
       inkscape:vp_x="0 : 12 : 1"
       inkscape:vp_y="0 : 1000 : 0"
       inkscape:vp_z="24 : 12 : 1"
       inkscape:persp3d-origin="12 : 8 : 1"
       id="perspective821" />
  </defs>
  <sodipodi:namedview
     id="base"
     pagecolor="#acacac"
     bordercolor="#666666"
     borderopacity="1.0"
     inkscape:pageopacity="0"
     inkscape:pageshadow="2"
     inkscape:zoom="11.313709"
     inkscape:cx="24.423662"
     inkscape:cy="14.41968"
     inkscape:current-layer="g4770"
     showgrid="true"
     inkscape:grid-bbox="true"
     inkscape:document-units="px"
     inkscape:window-width="1920"
     inkscape:window-height="1016"
     inkscape:window-x="1920"
     inkscape:window-y="74"
     inkscape:window-maximized="1"
     showguides="true"
     inkscape:guide-bbox="true">
    <sodipodi:guide
       position="0.99999471,22.999999"
       orientation="22,0"
       id="guide2987"
       inkscape:locked="false" />
    <sodipodi:guide
       position="0.99999471,0.99999888"
       orientation="0,22"
       id="guide2989"
       inkscape:locked="false" />
    <sodipodi:guide
       position="22.999995,0.99999888"
       orientation="-22,0"
       id="guide2991"
       inkscape:locked="false" />
    <inkscape:grid
       type="xygrid"
       id="grid2989" />
    <sodipodi:guide
       position="2,23"
       orientation="0,1"
       id="guide988"
       inkscape:locked="false" />
  </sodipodi:namedview>
  <metadata
     id="metadata4835">
    <rdf:RDF>
      <cc:Work
         rdf:about="">
        <dc:format>image/svg+xml</dc:format>
        <dc:type
           rdf:resource="http://purl.org/dc/dcmitype/StillImage" />
        <dc:title />
      </cc:Work>
    </rdf:RDF>
  </metadata>
  <g
     id="layer1"
     inkscape:label="Layer 1"
     inkscape:groupmode="layer"
     transform="translate(0,-8)">
    <g
       id="g4770"
       transform="matrix(1.7777778,0,0,1.7777778,-205.48441,-31.997877)">
      <g
         id="Layer_1"
         transform="matrix(-0.00397893,0,0,0.00397893,125.58386,23.674135)" />
      <path
         style="fill:#ffffff;fill-opacity:1;stroke:none;stroke-width:3.81416368;stroke-miterlimit:4;stroke-dasharray:none;stroke-dashoffset:0;stroke-opacity:1"
         d="M 9.7734375 3.1328125 C 9.4514997 3.1328961 9.1260151 3.2274483 8.8378906 3.421875 L 1.7382812 8.2128906 C 1.2580701 8.536934 1.0000696 9.0631081 1 9.5996094 C 0.99995823 9.9215101 1.0926827 10.247031 1.2871094 10.535156 L 6.078125 17.632812 C 6.5965961 18.401129 7.6320706 18.602454 8.4003906 18.083984 L 8.59375 17.953125 C 7.9344433 17.571347 7.4936822 16.939703 7.3339844 16.230469 C 7.2570066 16.14638 7.2148146 16.030764 7.2382812 15.910156 L 7.2714844 15.742188 C 7.2710044 15.729921 7.2675781 15.719387 7.2675781 15.707031 L 7.0996094 15.818359 C 6.9285872 15.933666 6.6973557 15.889683 6.5820312 15.71875 C 6.4666535 15.547888 6.5106184 15.316502 6.6816406 15.201172 L 6.8652344 15.080078 L 6.6503906 15.037109 C 6.448044 14.997749 6.3161799 14.805921 6.3554688 14.603516 C 6.3947576 14.401117 6.5886334 14.269262 6.7910156 14.308594 L 7.0058594 14.351562 L 6.8847656 14.169922 C 6.7693878 13.99906 6.8133528 13.76769 6.984375 13.652344 C 7.1553972 13.537037 7.3846756 13.58102 7.5 13.751953 L 7.6230469 13.931641 L 7.6640625 13.71875 C 7.6985514 13.541648 7.8518973 13.427445 8.0253906 13.425781 L 11.181641 6.7734375 C 11.430921 6.2480899 11.839655 5.8495789 12.320312 5.5898438 L 11.160156 3.8710938 C 10.836103 3.3908964 10.311942 3.1326738 9.7753906 3.1328125 L 9.7734375 3.1328125 z M 9.7070312 5.15625 C 9.9093779 5.19561 10.0373 5.3913607 9.9980469 5.59375 L 9.9589844 5.8085938 L 10.138672 5.6855469 C 10.309694 5.5702402 10.540926 5.616176 10.65625 5.7871094 C 10.771628 5.9579716 10.72571 6.1874064 10.554688 6.3027344 L 10.375 6.4257812 L 10.587891 6.4648438 C 10.79022 6.5042038 10.922048 6.701968 10.882812 6.9042969 C 10.843524 7.1066951 10.64963 7.2385503 10.447266 7.1992188 L 10.234375 7.15625 L 10.353516 7.3359375 C 10.468893 7.5067997 10.424928 7.7381716 10.253906 7.8535156 C 10.082884 7.9688045 9.8516348 7.9228865 9.7363281 7.7519531 L 9.6152344 7.5703125 L 9.5722656 7.7851562 C 9.5329767 7.9875776 9.3410363 8.1194257 9.1386719 8.0800781 C 8.9363252 8.0407181 8.8045144 7.8468424 8.84375 7.6445312 L 8.8847656 7.4316406 L 8.703125 7.5527344 C 8.5322806 7.6680588 8.3028244 7.6240583 8.1875 7.453125 C 8.0721222 7.2822628 8.1160872 7.0508784 8.2871094 6.9355469 L 8.46875 6.8125 L 8.2539062 6.7695312 C 8.0515418 6.7301712 7.9197133 6.5383268 7.9589844 6.3359375 C 7.9982733 6.1335215 8.1941199 6.0016663 8.3964844 6.0410156 L 8.6113281 6.0839844 L 8.4882812 5.9023438 C 8.3729035 5.7314815 8.4188215 5.5020485 8.5898438 5.3867188 C 8.7606882 5.2713943 8.9901443 5.3134417 9.1054688 5.484375 L 9.2265625 5.6660156 L 9.2675781 5.453125 C 9.306867 5.2507268 9.5046668 5.1169184 9.7070312 5.15625 z M 13.660156 6.2441406 C 13.008761 6.2152873 12.374234 6.5730936 12.076172 7.2011719 L 8.40625 14.9375 C 8.0088278 15.774885 8.3637319 16.768601 9.2011719 17.166016 L 16.9375 20.837891 C 17.774869 21.235306 18.768593 20.880411 19.166016 20.042969 L 22.837891 12.306641 C 23.235295 11.469254 22.880391 10.473587 22.042969 10.076172 L 14.306641 6.40625 C 14.097307 6.30689 13.877276 6.2537406 13.660156 6.2441406 z M 4.6210938 8.4902344 C 4.6685604 8.480101 4.7188646 8.4802788 4.7695312 8.4902344 C 4.9718779 8.5295944 5.103742 8.7214228 5.0644531 8.9238281 L 5.0214844 9.1386719 L 5.203125 9.0175781 C 5.3739694 8.9022715 5.6034256 8.9462542 5.71875 9.1171875 C 5.8341278 9.2880497 5.7899851 9.5194376 5.6191406 9.6347656 L 5.4394531 9.7558594 L 5.6503906 9.7949219 C 5.8527551 9.8342819 5.9865012 10.032064 5.9472656 10.234375 C 5.9079767 10.436791 5.7121301 10.568628 5.5097656 10.529297 L 5.296875 10.488281 L 5.4179688 10.667969 C 5.5333465 10.838831 5.4893816 11.068266 5.3183594 11.183594 C 5.1475149 11.2989 4.9180588 11.252965 4.8027344 11.082031 L 4.6796875 10.902344 L 4.6367188 11.117188 C 4.5974299 11.319595 4.4035541 11.449488 4.2011719 11.410156 C 3.9988252 11.370796 3.8669967 11.176919 3.90625 10.974609 L 3.9492188 10.761719 L 3.7695312 10.882812 C 3.598509 10.998119 3.3672776 10.954136 3.2519531 10.783203 C 3.1365753 10.612341 3.1805403 10.382906 3.3515625 10.267578 L 3.5351562 10.142578 L 3.3183594 10.101562 C 3.1159949 10.062202 2.9861195 9.8684227 3.0253906 9.6660156 C 3.0646795 9.4636245 3.2585731 9.3337135 3.4609375 9.3730469 L 3.6757812 9.4140625 L 3.5507812 9.2324219 C 3.4354035 9.0615597 3.4813215 8.8321409 3.6523438 8.7167969 C 3.823366 8.6014902 4.0546152 8.6454729 4.1699219 8.8164062 L 4.2910156 8.9980469 L 4.3320312 8.7832031 C 4.3615424 8.6313987 4.4789249 8.520213 4.6210938 8.4902344 z M 19.236328 10.785156 C 19.381395 10.793512 19.512578 10.887608 19.564453 11.033203 L 19.636719 11.236328 L 19.730469 11.041016 C 19.818824 10.854731 20.040322 10.774897 20.226562 10.863281 C 20.412785 10.951672 20.490788 11.171153 20.402344 11.357422 L 20.308594 11.558594 L 20.515625 11.484375 C 20.709812 11.415219 20.921079 11.514812 20.990234 11.708984 C 21.05939 11.903192 20.959723 12.116311 20.765625 12.185547 L 20.558594 12.257812 L 20.757812 12.351562 C 20.944035 12.439954 21.022038 12.661388 20.933594 12.847656 C 20.845238 13.033941 20.623758 13.111804 20.4375 13.023438 L 20.240234 12.929688 L 20.3125 13.136719 C 20.381656 13.330909 20.281988 13.54211 20.087891 13.611328 C 19.893722 13.680484 19.682455 13.580891 19.613281 13.386719 L 19.539062 13.177734 L 19.445312 13.376953 C 19.356957 13.563222 19.13743 13.64112 18.951172 13.552734 L 18.949219 13.552734 C 18.762979 13.464343 18.683218 13.242927 18.771484 13.056641 L 18.865234 12.861328 L 18.662109 12.933594 C 18.46794 13.002749 18.254702 12.901152 18.185547 12.707031 C 18.116391 12.512823 18.218012 12.301638 18.412109 12.232422 L 18.617188 12.158203 L 18.419922 12.066406 C 18.2337 11.978015 18.155678 11.756583 18.244141 11.570312 C 18.332496 11.384046 18.553977 11.304212 18.740234 11.392578 L 18.935547 11.486328 L 18.861328 11.283203 C 18.792173 11.089013 18.893811 10.875858 19.087891 10.806641 C 19.136424 10.789396 19.187973 10.782365 19.236328 10.785156 z M 15.269531 12.197266 C 15.414598 12.205621 15.547752 12.2997 15.599609 12.445312 L 15.669922 12.648438 L 15.763672 12.453125 C 15.852027 12.266858 16.073543 12.188958 16.259766 12.277344 C 16.446006 12.365735 16.523974 12.587169 16.435547 12.773438 L 16.34375 12.970703 L 16.548828 12.896484 C 16.743015 12.827329 16.954264 12.928855 17.023438 13.123047 C 17.092593 13.317235 16.990973 13.530392 16.796875 13.599609 L 16.59375 13.669922 L 16.789062 13.763672 C 16.975303 13.852063 17.055188 14.073497 16.966797 14.259766 C 16.878441 14.446034 16.656943 14.523949 16.470703 14.435547 L 16.273438 14.34375 L 16.347656 14.548828 C 16.416812 14.743036 16.315174 14.95422 16.121094 15.023438 C 15.926925 15.092593 15.717593 14.99302 15.648438 14.798828 L 15.574219 14.591797 L 15.478516 14.789062 C 15.39016 14.975331 15.16868 15.05323 14.982422 14.964844 C 14.796164 14.876453 14.718196 14.656972 14.806641 14.470703 L 14.898438 14.273438 L 14.695312 14.347656 C 14.501144 14.416812 14.287888 14.315232 14.21875 14.121094 C 14.149594 13.926904 14.249262 13.715702 14.443359 13.646484 L 14.650391 13.572266 L 14.453125 13.478516 C 14.266885 13.390125 14.188917 13.16869 14.277344 12.982422 C 14.365699 12.796153 14.587215 12.718255 14.773438 12.806641 L 14.96875 12.898438 L 14.894531 12.695312 C 14.825376 12.501104 14.928949 12.287986 15.123047 12.21875 C 15.17158 12.201506 15.221176 12.194475 15.269531 12.197266 z M 11.300781 13.611328 C 11.445848 13.619684 11.578984 13.713763 11.630859 13.859375 L 11.705078 14.0625 L 11.796875 13.867188 C 11.885231 13.680919 12.108682 13.601069 12.294922 13.689453 C 12.481144 13.777844 12.55913 13.99928 12.470703 14.185547 L 12.375 14.384766 L 12.582031 14.310547 C 12.776218 14.241391 12.989438 14.34098 13.058594 14.535156 C 13.127749 14.729364 13.024176 14.942485 12.830078 15.011719 L 12.626953 15.083984 L 12.824219 15.177734 C 13.010441 15.266125 13.088462 15.48756 13 15.673828 C 12.911644 15.860097 12.690164 15.937976 12.503906 15.849609 L 12.306641 15.755859 L 12.378906 15.962891 C 12.448062 16.157099 12.348412 16.368284 12.154297 16.4375 C 11.960128 16.506656 11.748861 16.407063 11.679688 16.212891 L 11.605469 16.003906 L 11.513672 16.203125 C 11.425316 16.389393 11.201883 16.469256 11.015625 16.380859 L 11.015625 16.378906 C 10.829385 16.290515 10.751382 16.071034 10.839844 15.884766 L 10.933594 15.6875 L 10.730469 15.759766 C 10.5363 15.828921 10.321091 15.727326 10.251953 15.533203 C 10.182798 15.338995 10.284418 15.127829 10.478516 15.058594 L 10.685547 14.986328 L 10.486328 14.892578 C 10.300088 14.804187 10.222085 14.582769 10.310547 14.396484 C 10.398902 14.210216 10.618447 14.130382 10.804688 14.21875 L 11.003906 14.3125 L 10.929688 14.109375 C 10.860532 13.915185 10.962152 13.70203 11.15625 13.632812 C 11.204783 13.615568 11.252426 13.608555 11.300781 13.611328 z "
         transform="matrix(0.56249999,0,0,0.56249999,115.58498,22.498806)"
         id="rect903" />
    </g>
  </g>
</svg>
