<?xml version="1.0" encoding="UTF-8" standalone="no"?>
<!-- Created with Inkscape (http://www.inkscape.org/) -->

<svg
   xmlns:dc="http://purl.org/dc/elements/1.1/"
   xmlns:cc="http://creativecommons.org/ns#"
   xmlns:rdf="http://www.w3.org/1999/02/22-rdf-syntax-ns#"
   xmlns:svg="http://www.w3.org/2000/svg"
   xmlns="http://www.w3.org/2000/svg"
   xmlns:sodipodi="http://sodipodi.sourceforge.net/DTD/sodipodi-0.dtd"
   xmlns:inkscape="http://www.inkscape.org/namespaces/inkscape"
   width="24"
   height="24"
   id="svg4830"
   version="1.1"
   inkscape:version="0.92.4 (5da689c313, 2019-01-14)"
   inkscape:export-filename="/home/joker/Project/Scratcheck/TestExport.png"
   inkscape:export-xdpi="90"
   inkscape:export-ydpi="90"
   sodipodi:docname="ic_otp.svg">
  <defs
     id="defs4832" />
  <sodipodi:namedview
     id="base"
     pagecolor="#acacac"
     bordercolor="#666666"
     borderopacity="1.0"
     inkscape:pageopacity="0"
     inkscape:pageshadow="2"
     inkscape:zoom="22.627417"
     inkscape:cx="15.382369"
     inkscape:cy="8.3340159"
     inkscape:current-layer="g4770"
     showgrid="true"
     inkscape:grid-bbox="true"
     inkscape:document-units="px"
     inkscape:window-width="1920"
     inkscape:window-height="1016"
     inkscape:window-x="1920"
     inkscape:window-y="74"
     inkscape:window-maximized="1">
    <sodipodi:guide
       position="0.99999471,22.999999"
       orientation="22,0"
       id="guide2987"
       inkscape:locked="false" />
    <sodipodi:guide
       position="0.99999471,0.99999888"
       orientation="0,22"
       id="guide2989"
       inkscape:locked="false" />
    <sodipodi:guide
       position="22.999995,0.99999888"
       orientation="-22,0"
       id="guide2991"
       inkscape:locked="false" />
    <sodipodi:guide
       position="22.999995,22.999999"
       orientation="0,-22"
       id="guide2993"
       inkscape:locked="false" />
    <inkscape:grid
       type="xygrid"
       id="grid2989" />
  </sodipodi:namedview>
  <metadata
     id="metadata4835">
    <rdf:RDF>
      <cc:Work
         rdf:about="">
        <dc:format>image/svg+xml</dc:format>
        <dc:type
           rdf:resource="http://purl.org/dc/dcmitype/StillImage" />
        <dc:title />
      </cc:Work>
    </rdf:RDF>
  </metadata>
  <g
     id="layer1"
     inkscape:label="Layer 1"
     inkscape:groupmode="layer"
     transform="translate(0,-8)">
    <g
       id="g4770"
       transform="matrix(1.7777778,0,0,1.7777778,-205.48441,-31.997877)">
      <path
         style="fill:#ffffff;fill-opacity:1;stroke:none;stroke-width:3.19999099;stroke-miterlimit:4;stroke-dasharray:none;stroke-dashoffset:0;stroke-opacity:1"
         d="M 9.1992188 3.1386719 L 9.1992188 4.7382812 L 9.1992188 6.3398438 L 10.800781 6.3398438 L 10.800781 4.7929688 C 13.694435 5.1545669 15.984121 7.4462151 16.345703 10.339844 L 14.800781 10.339844 L 14.800781 11.939453 L 16.34375 11.939453 C 16.297172 12.304226 16.21096 12.654335 16.107422 12.998047 L 17.755859 12.998047 C 17.900037 12.399016 18 11.781868 18 11.138672 C 18 6.7204051 14.418276 3.1386719 10 3.1386719 L 9.1992188 3.1386719 z M 4.7207031 5.1738281 L 4.5976562 5.25 C 4.307683 5.5156924 4.0368669 5.8020174 3.7890625 6.1074219 C 3.7440847 6.1623552 3.7640396 6.1365797 3.7539062 6.1484375 C 2.6207152 7.5649051 2.0013333 9.3236069 2 11.138672 C 2 11.416633 2.021448 11.688929 2.0507812 11.958984 C 2.0690924 12.128033 2.0981531 12.293221 2.1269531 12.458984 C 2.150242 12.599287 2.1725472 12.739214 2.203125 12.876953 C 2.2120139 12.917451 2.2173181 12.959733 2.2265625 13 L 2.2363281 13 C 2.4230837 13.78274 2.7296553 14.516492 3.1269531 15.191406 C 3.3008198 14.582357 3.6606202 14.05321 4.1445312 13.666016 C 4.0506647 13.448345 3.9582541 13.229399 3.8886719 13 L 3.890625 13 C 3.8852917 12.983822 3.8803333 12.96735 3.875 12.951172 C 3.7784667 12.623847 3.7053983 12.286372 3.6621094 11.939453 L 5.1972656 11.939453 L 5.2070312 11.939453 L 5.2070312 10.339844 L 5.1972656 10.339844 L 3.6640625 10.339844 C 3.6905514 10.135565 3.7343191 9.9347199 3.7792969 9.734375 C 3.8134302 9.5920817 3.8511559 9.4520253 3.8925781 9.3125 C 4.0926492 8.6365213 4.3908871 7.990728 4.8085938 7.4121094 L 9.1015625 11.705078 C 9.4149492 12.018468 9.9190173 12.018468 10.232422 11.705078 C 10.545809 11.391688 10.545809 10.887609 10.232422 10.574219 L 5.1425781 5.4824219 C 5.0298525 5.3697494 4.7245088 5.1750018 4.7226562 5.1738281 L 4.7207031 5.1738281 z M 6 14 C 4.892 14 4 14.892 4 16 L 4 19 C 4 20.108 4.892 21 6 21 L 21 21 C 22.108 21 23 20.108 23 19 L 23 16 C 23 14.892 22.108 14 21 14 L 6 14 z M 7.5 15 C 7.7769956 15 8 15.278749 8 15.625 L 8 16.292969 L 8.4726562 15.820312 C 8.7174918 15.575483 9.0717203 15.536564 9.2675781 15.732422 C 9.4635248 15.92829 9.4244875 16.282508 9.1796875 16.527344 L 8.7070312 17 L 9.375 17 C 9.72124 17 10 17.223001 10 17.5 C 10 17.777001 9.72124 18 9.375 18 L 8.7070312 18 L 9.1796875 18.472656 C 9.4244875 18.717492 9.463667 19.071711 9.2675781 19.267578 C 9.0717203 19.463443 8.7174918 19.424522 8.4726562 19.179688 L 8 18.707031 L 8 19.375 C 8 19.721249 7.7769956 20 7.5 20 C 7.2230044 20 7 19.721249 7 19.375 L 7 18.707031 L 6.5273438 19.179688 C 6.2825082 19.424519 5.9282797 19.463439 5.7324219 19.267578 C 5.536493 19.071711 5.5755125 18.717492 5.8203125 18.472656 L 6.2929688 18 L 5.625 18 C 5.27876 18 5 17.777001 5 17.5 C 5 17.223001 5.27876 17 5.625 17 L 6.2929688 17 L 5.8203125 16.527344 C 5.5755125 16.282508 5.536333 15.92829 5.7324219 15.732422 C 5.9282797 15.536557 6.2825082 15.575478 6.5273438 15.820312 L 7 16.292969 L 7 15.625 C 7 15.278749 7.2230044 15 7.5 15 z M 13.5 15 C 13.776996 15 14 15.278749 14 15.625 L 14 16.292969 L 14.472656 15.820312 C 14.717492 15.575483 15.07172 15.536564 15.267578 15.732422 C 15.463525 15.92829 15.424487 16.282508 15.179688 16.527344 L 14.707031 17 L 15.375 17 C 15.72124 17 16 17.223001 16 17.5 C 16 17.777001 15.72124 18 15.375 18 L 14.707031 18 L 15.179688 18.472656 C 15.424487 18.717492 15.463667 19.071711 15.267578 19.267578 C 15.07172 19.463443 14.717492 19.424522 14.472656 19.179688 L 14 18.707031 L 14 19.375 C 14 19.721249 13.776996 20 13.5 20 C 13.223004 20 13 19.721249 13 19.375 L 13 18.707031 L 12.527344 19.179688 C 12.282508 19.424519 11.92828 19.463439 11.732422 19.267578 C 11.536493 19.071711 11.575513 18.717492 11.820312 18.472656 L 12.292969 18 L 11.625 18 C 11.27876 18 11 17.777001 11 17.5 C 11 17.223001 11.27876 17 11.625 17 L 12.292969 17 L 11.820312 16.527344 C 11.575513 16.282508 11.536333 15.92829 11.732422 15.732422 C 11.92828 15.536557 12.282508 15.575478 12.527344 15.820312 L 13 16.292969 L 13 15.625 C 13 15.278749 13.223004 15 13.5 15 z M 19.5 15 C 19.776996 15 20 15.278749 20 15.625 L 20 16.292969 L 20.472656 15.820312 C 20.717492 15.575483 21.07172 15.536564 21.267578 15.732422 C 21.463525 15.92829 21.424487 16.282508 21.179688 16.527344 L 20.707031 17 L 21.375 17 C 21.72124 17 22 17.223001 22 17.5 C 22 17.777001 21.72124 18 21.375 18 L 20.707031 18 L 21.179688 18.472656 C 21.424487 18.717492 21.463667 19.071711 21.267578 19.267578 C 21.07172 19.463443 20.717492 19.424522 20.472656 19.179688 L 20 18.707031 L 20 19.375 C 20 19.721249 19.776996 20 19.5 20 C 19.223004 20 19 19.721249 19 19.375 L 19 18.707031 L 18.527344 19.179688 C 18.282508 19.424519 17.92828 19.463439 17.732422 19.267578 C 17.536493 19.071711 17.575513 18.717492 17.820312 18.472656 L 18.292969 18 L 17.625 18 C 17.27876 18 17 17.777001 17 17.5 C 17 17.223001 17.27876 17 17.625 17 L 18.292969 17 L 17.820312 16.527344 C 17.575513 16.282508 17.536333 15.92829 17.732422 15.732422 C 17.92828 15.536557 18.282508 15.575478 18.527344 15.820312 L 19 16.292969 L 19 15.625 C 19 15.278749 19.223004 15 19.5 15 z "
         transform="matrix(0.56249999,0,0,0.56249999,115.58498,22.498806)"
         id="rect831" />
      <g
         id="Layer_1"
         transform="matrix(-0.00397893,0,0,0.00397893,125.58386,23.674135)" />
    </g>
  </g>
</svg>
