<?xml version="1.0" encoding="UTF-8" standalone="no"?>
<svg
   xmlns:dc="http://purl.org/dc/elements/1.1/"
   xmlns:cc="http://creativecommons.org/ns#"
   xmlns:rdf="http://www.w3.org/1999/02/22-rdf-syntax-ns#"
   xmlns:svg="http://www.w3.org/2000/svg"
   xmlns="http://www.w3.org/2000/svg"
   xmlns:sodipodi="http://sodipodi.sourceforge.net/DTD/sodipodi-0.dtd"
   xmlns:inkscape="http://www.inkscape.org/namespaces/inkscape"
   width="24"
   height="24"
   id="svg4830"
   version="1.1"
   inkscape:version="1.0.2 (e86c870879, 2021-01-15)"
   inkscape:export-filename="/home/joker/Project/Scratcheck/TestExport.png"
   inkscape:export-xdpi="90"
   inkscape:export-ydpi="90"
   sodipodi:docname="ic_previous_password.svg">
  <defs
     id="defs4832">
    <inkscape:path-effect
       effect="offset"
       id="path-effect922"
       is_visible="true"
       lpeversion="1"
       linejoin_type="miter"
       unit="px"
       offset="1"
       miter_limit="4"
       attempt_force_join="true"
       update_on_knot_move="true" />
    <inkscape:path-effect
       effect="offset"
       id="path-effect892"
       is_visible="true"
       lpeversion="1"
       linejoin_type="round"
       unit="px"
       offset="0.1"
       miter_limit="4"
       attempt_force_join="true"
       update_on_knot_move="true" />
    <inkscape:path-effect
       effect="offset"
       id="path-effect1082"
       is_visible="true"
       lpeversion="1"
       linejoin_type="miter"
       unit="px"
       offset="1"
       miter_limit="4"
       attempt_force_join="true"
       update_on_knot_move="true" />
  </defs>
  <sodipodi:namedview
     id="base"
     pagecolor="#acacac"
     bordercolor="#666666"
     borderopacity="1.0"
     inkscape:pageopacity="0"
     inkscape:pageshadow="2"
     inkscape:zoom="18.758844"
     inkscape:cx="10.427321"
     inkscape:cy="12.790474"
     inkscape:current-layer="g4770"
     showgrid="true"
     inkscape:grid-bbox="true"
     inkscape:document-units="px"
     inkscape:window-width="1280"
     inkscape:window-height="657"
     inkscape:window-x="0"
     inkscape:window-y="0"
     inkscape:window-maximized="1"
     inkscape:document-rotation="0"
     inkscape:snap-global="false"
     showguides="true"
     inkscape:guide-bbox="true">
    <sodipodi:guide
       position="0.99999471,22.999999"
       orientation="22,0"
       id="guide2987"
       inkscape:locked="false" />
    <sodipodi:guide
       position="0.99999471,0.99999888"
       orientation="0,22"
       id="guide2989"
       inkscape:locked="false" />
    <sodipodi:guide
       position="22.999995,0.99999888"
       orientation="-22,0"
       id="guide2991"
       inkscape:locked="false" />
    <sodipodi:guide
       position="22.999995,22.999999"
       orientation="0,-22"
       id="guide2993"
       inkscape:locked="false" />
    <inkscape:grid
       type="xygrid"
       id="grid2989" />
    <sodipodi:guide
       position="14.675781,11.003906"
       orientation="0,-1"
       id="guide1111" />
  </sodipodi:namedview>
  <metadata
     id="metadata4835">
    <rdf:RDF>
      <cc:Work
         rdf:about="">
        <dc:format>image/svg+xml</dc:format>
        <dc:type
           rdf:resource="http://purl.org/dc/dcmitype/StillImage" />
        <dc:title />
      </cc:Work>
    </rdf:RDF>
  </metadata>
  <g
     id="layer1"
     inkscape:label="Layer 1"
     inkscape:groupmode="layer"
     transform="translate(0,-8)">
    <g
       id="g4770"
       transform="matrix(1.7777778,0,0,1.7777778,-205.48441,-31.997877)">
      <path
         id="path28"
         style="stroke:none;stroke-width:0;stroke-miterlimit:4;stroke-dasharray:none;stroke-opacity:1;fill:#ffffff"
         d="M 9.9316406 2.7617188 C 6.8812406 2.7190521 3.9609308 4.8115666 3.0234375 7.7167969 C 2.7794908 8.4363951 2.668212 9.1942681 2.6582031 9.953125 L 0.34179688 9.953125 A 0.1 0.1 0 0 0 0.2734375 10.123047 C 0.3774375 10.228416 0.49041903 10.343544 0.61328125 10.466797 C 0.83440125 10.68864 1.0793379 10.934338 1.3320312 11.185547 C 2.3276935 12.175323 1.2393957 11.108318 3.4570312 13.287109 A 0.1 0.1 0 0 0 3.5957031 13.287109 C 7.2887521 9.674624 5.4687588 11.451432 6.4902344 10.439453 C 6.6066788 10.324111 6.7135917 10.21587 6.8066406 10.123047 A 0.1 0.1 0 0 0 6.7382812 9.953125 L 4.4746094 9.953125 C 4.4799427 7.459445 6.3654454 5.129987 8.8242188 4.671875 C 11.218672 4.1373363 13.858559 5.440979 14.886719 7.671875 C 15.925822 9.7428139 15.406033 12.410447 13.740234 14 L 16.037109 14 C 16.926196 12.616572 17.379905 10.953466 17.189453 9.3085938 C 16.916209 6.1841564 14.399631 3.4401526 11.310547 2.8945312 C 10.855774 2.8073312 10.39301 2.7616476 9.9316406 2.7617188 z M 9.1328125 6.7597656 A 0.1 0.1 0 0 0 9.0332031 6.859375 L 9.0332031 10.853516 A 0.1 0.1 0 0 0 9.0820312 10.939453 C 10.22228 11.616145 11.361633 12.293976 12.501953 12.970703 A 0.1 0.1 0 0 0 12.640625 12.935547 L 13.216797 11.970703 A 0.1 0.1 0 0 0 13.181641 11.832031 L 10.431641 10.197266 L 10.431641 6.859375 A 0.1 0.1 0 0 0 10.332031 6.7597656 L 9.1328125 6.7597656 z M 6.0546875 13.972656 C 6.00105 13.970341 5.948295 13.987542 5.8964844 14.009766 C 5.9314564 14.007963 5.964564 14 6 14 L 6.15625 14 C 6.1225205 13.986717 6.0879128 13.97409 6.0546875 13.972656 z "
         transform="matrix(0.56249999,0,0,0.56249999,115.58498,22.498806)" />
      <path
         id="path224"
         style="fill:#ffffff;fill-opacity:1;stroke:none;stroke-width:3.19999099;stroke-miterlimit:4;stroke-dasharray:none;stroke-dashoffset:0;stroke-opacity:1"
         d="M 6 14 C 4.892 14 4 14.892 4 16 L 4 19 C 4 20.108 4.892 21 6 21 L 21 21 C 22.108 21 23 20.108 23 19 L 23 16 C 23 14.892 22.108 14 21 14 L 6 14 z M 7.5 15 C 7.7769956 15 8 15.278749 8 15.625 L 8 16.292969 L 8.4726562 15.820312 C 8.7174918 15.575484 9.0717203 15.536564 9.2675781 15.732422 C 9.4635248 15.92829 9.4244879 16.282508 9.1796875 16.527344 L 8.7070312 17 L 9.375 17 C 9.72124 17 10 17.223001 10 17.5 C 10 17.777001 9.72124 18 9.375 18 L 8.7070312 18 L 9.1796875 18.472656 C 9.4244875 18.717492 9.4636666 19.071711 9.2675781 19.267578 C 9.0717203 19.463443 8.7174918 19.424521 8.4726562 19.179688 L 8 18.707031 L 8 19.375 C 8 19.721249 7.7769956 20 7.5 20 C 7.2230044 20 7 19.721249 7 19.375 L 7 18.707031 L 6.5273438 19.179688 C 6.2825082 19.424518 5.9282797 19.463439 5.7324219 19.267578 C 5.536493 19.071711 5.5755125 18.717492 5.8203125 18.472656 L 6.2929688 18 L 5.625 18 C 5.27876 18 5 17.777001 5 17.5 C 5 17.223001 5.27876 17 5.625 17 L 6.2929688 17 L 5.8203125 16.527344 C 5.5755125 16.282508 5.5363334 15.92829 5.7324219 15.732422 C 5.9282797 15.536557 6.2825082 15.575479 6.5273438 15.820312 L 7 16.292969 L 7 15.625 C 7 15.278749 7.2230044 15 7.5 15 z M 13.5 15 C 13.776996 15 14 15.278749 14 15.625 L 14 16.292969 L 14.472656 15.820312 C 14.717492 15.575485 15.07172 15.536564 15.267578 15.732422 C 15.463525 15.92829 15.424485 16.282508 15.179688 16.527344 L 14.707031 17 L 15.375 17 C 15.72124 17 16 17.223001 16 17.5 C 16 17.777001 15.72124 18 15.375 18 L 14.707031 18 L 15.179688 18.472656 C 15.424485 18.717492 15.463667 19.071711 15.267578 19.267578 C 15.07172 19.463443 14.717492 19.42452 14.472656 19.179688 L 14 18.707031 L 14 19.375 C 14 19.721249 13.776996 20 13.5 20 C 13.223004 20 13 19.721249 13 19.375 L 13 18.707031 L 12.527344 19.179688 C 12.282508 19.424517 11.92828 19.463439 11.732422 19.267578 C 11.536493 19.071711 11.575515 18.717492 11.820312 18.472656 L 12.292969 18 L 11.625 18 C 11.27876 18 11 17.777001 11 17.5 C 11 17.223001 11.27876 17 11.625 17 L 12.292969 17 L 11.820312 16.527344 C 11.575515 16.282508 11.536333 15.92829 11.732422 15.732422 C 11.92828 15.536557 12.282508 15.57548 12.527344 15.820312 L 13 16.292969 L 13 15.625 C 13 15.278749 13.223004 15 13.5 15 z M 19.5 15 C 19.776996 15 20 15.278749 20 15.625 L 20 16.292969 L 20.472656 15.820312 C 20.717492 15.575486 21.07172 15.536564 21.267578 15.732422 C 21.463525 15.92829 21.424484 16.282508 21.179688 16.527344 L 20.707031 17 L 21.375 17 C 21.72124 17 22 17.223001 22 17.5 C 22 17.777001 21.72124 18 21.375 18 L 20.707031 18 L 21.179688 18.472656 C 21.424484 18.717492 21.463667 19.071711 21.267578 19.267578 C 21.07172 19.463443 20.717492 19.424519 20.472656 19.179688 L 20 18.707031 L 20 19.375 C 20 19.721249 19.776996 20 19.5 20 C 19.223004 20 19 19.721249 19 19.375 L 19 18.707031 L 18.527344 19.179688 C 18.282508 19.424516 17.92828 19.463439 17.732422 19.267578 C 17.536493 19.071711 17.575516 18.717492 17.820312 18.472656 L 18.292969 18 L 17.625 18 C 17.27876 18 17 17.777001 17 17.5 C 17 17.223001 17.27876 17 17.625 17 L 18.292969 17 L 17.820312 16.527344 C 17.575516 16.282508 17.536333 15.92829 17.732422 15.732422 C 17.92828 15.536557 18.282508 15.575481 18.527344 15.820312 L 19 16.292969 L 19 15.625 C 19 15.278749 19.223004 15 19.5 15 z "
         transform="matrix(0.56249999,0,0,0.56249999,115.58498,22.498806)" />
      <g
         id="Layer_1"
         transform="matrix(-0.00397893,0,0,0.00397893,125.58386,23.674135)" />
    </g>
  </g>
</svg>
