<?xml version="1.0" encoding="UTF-8" standalone="no"?>
<!-- Created with Inkscape (http://www.inkscape.org/) -->

<svg
   xmlns:dc="http://purl.org/dc/elements/1.1/"
   xmlns:cc="http://creativecommons.org/ns#"
   xmlns:rdf="http://www.w3.org/1999/02/22-rdf-syntax-ns#"
   xmlns:svg="http://www.w3.org/2000/svg"
   xmlns="http://www.w3.org/2000/svg"
   xmlns:sodipodi="http://sodipodi.sourceforge.net/DTD/sodipodi-0.dtd"
   xmlns:inkscape="http://www.inkscape.org/namespaces/inkscape"
   width="24"
   height="24"
   id="svg4830"
   version="1.1"
   inkscape:version="0.91 r13725"
   inkscape:export-filename="/home/joker/Project/Scratcheck/TestExport.png"
   inkscape:export-xdpi="90"
   inkscape:export-ydpi="90"
   sodipodi:docname="ic_read_only.svg">
  <defs
     id="defs4832" />
  <sodipodi:namedview
     id="base"
     pagecolor="#acacac"
     bordercolor="#666666"
     borderopacity="1.0"
     inkscape:pageopacity="0"
     inkscape:pageshadow="2"
     inkscape:zoom="8"
     inkscape:cx="-37.548191"
     inkscape:cy="-10.060761"
     inkscape:current-layer="g4770"
     showgrid="true"
     inkscape:grid-bbox="true"
     inkscape:document-units="px"
     inkscape:window-width="1920"
     inkscape:window-height="1023"
     inkscape:window-x="0"
     inkscape:window-y="27"
     inkscape:window-maximized="1">
    <sodipodi:guide
       position="0.99999471,22.999999"
       orientation="22,0"
       id="guide2987" />
    <sodipodi:guide
       position="0.99999471,0.99999888"
       orientation="0,22"
       id="guide2989" />
    <sodipodi:guide
       position="22.999995,0.99999888"
       orientation="-22,0"
       id="guide2991" />
    <sodipodi:guide
       position="22.999995,22.999999"
       orientation="0,-22"
       id="guide2993" />
    <inkscape:grid
       type="xygrid"
       id="grid2989" />
  </sodipodi:namedview>
  <metadata
     id="metadata4835">
    <rdf:RDF>
      <cc:Work
         rdf:about="">
        <dc:format>image/svg+xml</dc:format>
        <dc:type
           rdf:resource="http://purl.org/dc/dcmitype/StillImage" />
        <dc:title></dc:title>
      </cc:Work>
    </rdf:RDF>
  </metadata>
  <g
     id="layer1"
     inkscape:label="Layer 1"
     inkscape:groupmode="layer"
     transform="translate(0,-8)">
    <g
       id="g4770"
       transform="matrix(1.7777778,0,0,1.7777778,-205.48441,-31.997877)">
      <g
         id="Layer_1"
         transform="matrix(-0.00397893,0,0,0.00397893,125.58386,23.674135)" />
      <path
         inkscape:connector-curvature="0"
         style="fill:#ffffff;fill-opacity:1"
         d="m 125.00684,31.305444 0,-6.644528 c 0,-0.263013 -0.21159,-0.47461 -0.4746,-0.47461 l -6.48633,0 c -1.04808,0 -1.89843,0.850344 -1.89843,1.898435 l 0,6.328127 c 0,1.048093 0.85035,1.898437 1.89843,1.898437 l 6.48633,0 c 0.26301,0 0.4746,-0.2116 0.4746,-0.474611 l 0,-0.316409 c 0,-0.148311 -0.0692,-0.282785 -0.176,-0.369792 -0.083,-0.304543 -0.083,-1.172685 0,-1.477229 0.10684,-0.08504 0.176,-0.219501 0.176,-0.36782 z m -6.32812,-4.469236 c 0,-0.06529 0.0534,-0.118652 0.11866,-0.118652 l 4.19238,0 c 0.0653,0 0.11866,0.05343 0.11866,0.118652 l 0,0.39551 c 0,0.06529 -0.0534,0.118653 -0.11866,0.118653 l -4.19238,0 c -0.0653,0 -0.11866,-0.05343 -0.11866,-0.118653 l 0,-0.39551 z m 0,1.265621 c 0,-0.06529 0.0534,-0.118653 0.11866,-0.118653 l 4.19238,0 c 0.0653,0 0.11866,0.05343 0.11866,0.118653 l 0,0.395509 c 0,0.06529 -0.0534,0.118653 -0.11866,0.118653 l -4.19238,0 c -0.0653,0 -0.11866,-0.05342 -0.11866,-0.118653 l 0,-0.395509 z m 5.0111,4.943847 -5.64391,0 c -0.35003,0 -0.63282,-0.282781 -0.63282,-0.632808 0,-0.348045 0.28476,-0.632813 0.63282,-0.632813 l 5.64391,0 c -0.0375,0.338162 -0.0375,0.927466 0,1.265621 z"
         id="path4" />
    </g>
  </g>
</svg>
