<?xml version="1.0" encoding="UTF-8" standalone="no"?>
<!-- Created with Inkscape (http://www.inkscape.org/) -->

<svg
   xmlns:dc="http://purl.org/dc/elements/1.1/"
   xmlns:cc="http://creativecommons.org/ns#"
   xmlns:rdf="http://www.w3.org/1999/02/22-rdf-syntax-ns#"
   xmlns:svg="http://www.w3.org/2000/svg"
   xmlns="http://www.w3.org/2000/svg"
   xmlns:sodipodi="http://sodipodi.sourceforge.net/DTD/sodipodi-0.dtd"
   xmlns:inkscape="http://www.inkscape.org/namespaces/inkscape"
   width="24"
   height="24"
   id="svg4830"
   version="1.1"
   inkscape:version="0.92.4 (5da689c313, 2019-01-14)"
   inkscape:export-filename="/home/joker/Project/Scratcheck/TestExport.png"
   inkscape:export-xdpi="90"
   inkscape:export-ydpi="90"
   sodipodi:docname="ic_read_write.svg">
  <defs
     id="defs4832" />
  <sodipodi:namedview
     id="base"
     pagecolor="#acacac"
     bordercolor="#666666"
     borderopacity="1.0"
     inkscape:pageopacity="0"
     inkscape:pageshadow="2"
     inkscape:zoom="22.627416"
     inkscape:cx="8.4587979"
     inkscape:cy="13.002913"
     inkscape:current-layer="g4770"
     showgrid="true"
     inkscape:grid-bbox="true"
     inkscape:document-units="px"
     inkscape:window-width="1920"
     inkscape:window-height="1016"
     inkscape:window-x="1920"
     inkscape:window-y="74"
     inkscape:window-maximized="1">
    <sodipodi:guide
       position="0.99999471,22.999999"
       orientation="22,0"
       id="guide2987"
       inkscape:locked="false" />
    <sodipodi:guide
       position="0.99999471,0.99999888"
       orientation="0,22"
       id="guide2989"
       inkscape:locked="false" />
    <sodipodi:guide
       position="22.999995,0.99999888"
       orientation="-22,0"
       id="guide2991"
       inkscape:locked="false" />
    <sodipodi:guide
       position="39,23"
       orientation="0,-22"
       id="guide2993"
       inkscape:locked="false" />
    <inkscape:grid
       type="xygrid"
       id="grid2989" />
  </sodipodi:namedview>
  <metadata
     id="metadata4835">
    <rdf:RDF>
      <cc:Work
         rdf:about="">
        <dc:format>image/svg+xml</dc:format>
        <dc:type
           rdf:resource="http://purl.org/dc/dcmitype/StillImage" />
        <dc:title></dc:title>
      </cc:Work>
    </rdf:RDF>
  </metadata>
  <g
     id="layer1"
     inkscape:label="Layer 1"
     inkscape:groupmode="layer"
     transform="translate(0,-8)">
    <g
       id="g4770"
       transform="matrix(1.7777778,0,0,1.7777778,-205.48441,-31.997877)">
      <g
         id="Layer_1"
         transform="matrix(-0.00397893,0,0,0.00397893,125.58386,23.674135)" />
      <path
         style="fill:#ffffff;fill-opacity:1;stroke-width:1.01553178"
         d="M 16.566406,5.0078125 C 15.782726,5.1133592 15.352352,5.8416456 14.802734,6.3261719 14.631179,6.503043 14.326338,6.6788074 14.664062,6.8554688 L 17.339844,9.53125 C 17.821017,9.0226367 18.368011,8.5699819 18.791016,8.0117188 19.125433,7.5187285 19.054409,6.8047721 18.564453,6.4453125 18.109555,6.0127792 17.694742,5.5314578 17.210938,5.1328125 17.01828,5.0182169 16.787242,4.9827103 16.566406,5.0078125 Z M 13.449219,7.6777344 C 10.851548,10.276042 8.2539034,12.874349 5.65625,15.472656 5.4423833,16.493124 5.1885689,17.506656 5,18.53125 c 0.019556,0.598212 0.681759,0.466668 1.0722656,0.351562 0.8179378,-0.179027 1.6351872,-0.358083 2.453125,-0.537109 2.5983114,-2.598958 5.1966104,-5.197918 7.7949214,-7.796875 z"
         transform="matrix(0.56249999,0,0,0.56249999,115.58498,22.498806)"
         id="path4"
         inkscape:connector-curvature="0"
         sodipodi:nodetypes="ccccccccccccccc" />
    </g>
  </g>
</svg>
