<?xml version="1.0" encoding="UTF-8" standalone="no"?>
<!-- Uploaded to: SVG Repo, www.svgrepo.com, Generator: SVG Repo Mixer Tools -->

<svg
   fill="#000000"
   version="1.1"
   id="Capa_1"
   width="24"
   height="24"
   viewBox="0 0 24 24"
   xml:space="preserve"
   sodipodi:docname="ic_user_verification_disabled.svg"
   inkscape:version="1.2.2 (b0a8486541, 2022-12-01)"
   xmlns:inkscape="http://www.inkscape.org/namespaces/inkscape"
   xmlns:sodipodi="http://sodipodi.sourceforge.net/DTD/sodipodi-0.dtd"
   xmlns="http://www.w3.org/2000/svg"
   xmlns:svg="http://www.w3.org/2000/svg"><defs
   id="defs9" /><sodipodi:namedview
   id="namedview7"
   pagecolor="#d1d1d1"
   bordercolor="#000000"
   borderopacity="0.25"
   inkscape:showpageshadow="2"
   inkscape:pageopacity="0"
   inkscape:pagecheckerboard="0"
   inkscape:deskcolor="#d1d1d1"
   showgrid="true"
   inkscape:zoom="2.8284271"
   inkscape:cx="101.29305"
   inkscape:cy="115.61196"
   inkscape:window-width="3440"
   inkscape:window-height="1394"
   inkscape:window-x="0"
   inkscape:window-y="0"
   inkscape:window-maximized="1"
   inkscape:current-layer="Capa_1"><inkscape:grid
     type="xygrid"
     id="grid9809" /></sodipodi:namedview>

<path
   id="path861"
   style="fill:#ffffff;fill-opacity:1;stroke:none;stroke-width:1;stroke-miterlimit:4;stroke-dasharray:none;stroke-dashoffset:0;stroke-opacity:1"
   d="M 12 1 A 11.000003 11.000001 0 0 0 1 12 A 11.000003 11.000001 0 0 0 1.1035156 13.445312 A 11.000003 11.000001 0 0 0 1.1152344 13.505859 A 11.000003 11.000001 0 0 0 1.1425781 13.654297 A 11.000003 11.000001 0 0 0 1.2382812 14.152344 A 11.000003 11.000001 0 0 0 1.3945312 14.871094 A 11.000003 11.000001 0 0 0 1.4433594 15.021484 A 11.000003 11.000001 0 0 0 1.4609375 15.074219 A 11.000003 11.000001 0 0 0 1.6464844 15.640625 A 11.000003 11.000001 0 0 0 1.8710938 16.240234 A 11.000003 11.000001 0 0 0 1.984375 16.480469 A 11.000003 11.000001 0 0 0 2.2421875 17.025391 A 11.000003 11.000001 0 0 0 2.5136719 17.521484 A 11.000003 11.000001 0 0 0 3 18.287109 A 11.000003 11.000001 0 0 0 3.3183594 18.710938 A 11.000003 11.000001 0 0 0 3.9316406 19.447266 A 11.000003 11.000001 0 0 0 4 19.529297 L 4 19.515625 A 11.000003 11.000001 0 0 0 4.484375 20 L 4.4609375 20 A 11.000003 11.000001 0 0 0 4.5996094 20.115234 A 11.000003 11.000001 0 0 0 5.2050781 20.619141 A 11.000003 11.000001 0 0 0 5.7578125 21.033203 A 11.000003 11.000001 0 0 0 5.9785156 21.173828 A 11.000003 11.000001 0 0 0 5.9824219 21.175781 A 11.000003 11.000001 0 0 0 6.4179688 21.453125 A 11.000003 11.000001 0 0 0 7.0390625 21.792969 A 11.000003 11.000001 0 0 0 7.2890625 21.910156 A 11.000003 11.000001 0 0 0 7.4472656 21.986328 A 11.000003 11.000001 0 0 0 7.7128906 22.111328 A 11.000003 11.000001 0 0 0 8.4394531 22.382812 A 11.000003 11.000001 0 0 0 8.7011719 22.46875 A 11.000003 11.000001 0 0 0 8.9472656 22.546875 A 11.000003 11.000001 0 0 0 9.0996094 22.597656 A 11.000003 11.000001 0 0 0 9.9472656 22.783203 A 11.000003 11.000001 0 0 0 10.269531 22.845703 A 11.000003 11.000001 0 0 0 10.449219 22.880859 A 11.000003 11.000001 0 0 0 10.535156 22.896484 A 11.000003 11.000001 0 0 0 12 23 A 11.000003 11.000001 0 0 0 13.427734 22.898438 A 11.000003 11.000001 0 0 0 14.695312 22.642578 A 11.000003 11.000001 0 0 0 14.806641 22.619141 A 11.000003 11.000001 0 0 0 16.128906 22.169922 L 16.130859 22.169922 A 11.000003 11.000001 0 0 0 19.580078 19.935547 A 11.000003 11.000001 0 0 0 20.3125 19.203125 A 11.000003 11.000001 0 0 0 20.314453 19.201172 L 20.316406 19.199219 A 11.000003 11.000001 0 0 0 22.673828 14.548828 A 11.000003 11.000001 0 0 0 22.779297 14.066406 A 11.000003 11.000001 0 0 0 22.90625 13.3125 A 11.000003 11.000001 0 0 0 23 12 A 11.000003 11.000001 0 0 0 22.896484 10.554688 A 11.000003 11.000001 0 0 0 22.761719 9.8476562 A 11.000003 11.000001 0 0 0 22.605469 9.1289062 A 11.000003 11.000001 0 0 0 22.601562 9.1191406 A 11.000003 11.000001 0 0 0 22.353516 8.359375 A 11.000003 11.000001 0 0 0 22.128906 7.7597656 A 11.000003 11.000001 0 0 0 21.757812 6.9746094 A 11.000003 11.000001 0 0 0 21.486328 6.4785156 A 11.000003 11.000001 0 0 0 21 5.7128906 A 11.000003 11.000001 0 0 0 20.681641 5.2890625 A 11.000003 11.000001 0 0 0 20.679688 5.2871094 A 11.000003 11.000001 0 0 0 20.068359 4.5527344 A 11.000003 11.000001 0 0 0 20 4.4707031 L 20 4.484375 A 11.000003 11.000001 0 0 0 19.515625 4 L 19.539062 4 A 11.000003 11.000001 0 0 0 19.400391 3.8847656 A 11.000003 11.000001 0 0 0 18.794922 3.3808594 A 11.000003 11.000001 0 0 0 18.242188 2.9667969 A 11.000003 11.000001 0 0 0 18.238281 2.9648438 A 11.000003 11.000001 0 0 0 17.582031 2.546875 A 11.000003 11.000001 0 0 0 17.361328 2.4257812 A 11.000003 11.000001 0 0 0 16.960938 2.2070312 A 11.000003 11.000001 0 0 0 16.955078 2.2050781 A 11.000003 11.000001 0 0 0 16.287109 1.8886719 A 11.000003 11.000001 0 0 0 15.839844 1.7226562 A 11.000003 11.000001 0 0 0 15.560547 1.6171875 A 11.000003 11.000001 0 0 0 15.558594 1.6171875 A 11.000003 11.000001 0 0 0 14.900391 1.4023438 A 11.000003 11.000001 0 0 0 14.496094 1.3144531 A 11.000003 11.000001 0 0 0 14.052734 1.2167969 A 11.000003 11.000001 0 0 0 14.033203 1.2128906 A 11.000003 11.000001 0 0 0 13.464844 1.1035156 A 11.000003 11.000001 0 0 0 12 1 z M 12 3 A 9.0000001 9.0000001 0 0 1 12.476562 3.0390625 A 9.0000001 9.0000001 0 0 1 13.740234 3.1972656 A 9.0000001 9.0000001 0 0 1 13.966797 3.2539062 A 9.0000001 9.0000001 0 0 1 15.023438 3.5527344 A 9.0000001 9.0000001 0 0 1 15.414062 3.71875 A 9.0000001 9.0000001 0 0 1 19.365234 6.8535156 A 9.0000001 9.0000001 0 0 1 19.429688 6.9570312 A 9.0000001 9.0000001 0 0 1 20.060547 8.0234375 A 9.0000001 9.0000001 0 0 1 20.146484 8.2304688 A 9.0000001 9.0000001 0 0 1 20.574219 9.2910156 A 9.0000001 9.0000001 0 0 1 20.658203 9.6386719 A 9.0000001 9.0000001 0 0 1 20.890625 10.630859 A 9.0000001 9.0000001 0 0 1 21 12 A 9.0000001 9.0000001 0 0 1 20.931641 12.998047 A 9.0000001 9.0000001 0 0 1 20.771484 13.90625 A 9.0000001 9.0000001 0 0 1 19.025391 17.611328 L 17.871094 16.457031 L 17.318359 15.904297 L 11.667969 10.253906 L 8.4960938 7.0820312 L 6.71875 5.3046875 L 6.3828125 4.96875 A 9.0000001 9.0000001 0 0 1 7.625 4.1523438 L 7.6269531 4.1503906 A 9.0000001 9.0000001 0 0 1 12 3 z M 11.714844 4.0625 C 10.535145 4.1160779 9.4173853 4.4939949 8.3808594 5.0488281 C 8.3668494 5.0624561 8.3517906 5.0739966 8.3378906 5.0878906 C 8.2783507 5.1474266 8.2245738 5.2097614 8.1699219 5.2714844 L 13.478516 10.580078 C 13.540236 10.525428 13.602573 10.471645 13.662109 10.412109 C 14.387108 9.6871142 14.75 8.7999939 14.75 7.75 C 14.75 6.7000065 14.387106 5.8128864 13.662109 5.0878906 C 13.10787 4.5336515 12.458913 4.1931473 11.714844 4.0625 z M 4.9746094 6.3886719 L 17.617188 19.03125 A 9.0000001 9.0000001 0 0 1 12 21 A 9.0000001 9.0000001 0 0 1 7.9121094 20 L 7.8828125 20 A 9.0000001 9.0000001 0 0 1 4 16.119141 A 9.0000001 9.0000001 0 0 1 3.9980469 16.115234 A 9.0000001 9.0000001 0 0 1 3.5839844 15.125 A 9.0000001 9.0000001 0 0 1 3.4472656 14.792969 A 9.0000001 9.0000001 0 0 1 3.3652344 14.455078 A 9.0000001 9.0000001 0 0 1 3.0996094 13.251953 A 9.0000001 9.0000001 0 0 1 3 12 A 9.0000001 9.0000001 0 0 1 3.0839844 10.791016 A 9.0000001 9.0000001 0 0 1 4.9746094 6.3886719 z M 10.611328 13.509766 C 10.314967 13.518566 10.022754 13.53349 9.7382812 13.5625 C 9.3299357 13.60415 8.9079579 13.66665 8.4746094 13.75 C 8.4704094 13.7542 8.0491182 13.84455 7.9121094 13.875 C 6.8871144 14.124999 5.8158626 14.500002 4.6992188 15 C 4.6876888 15.0054 4.6774456 15.012078 4.6660156 15.017578 C 4.7485355 15.229737 4.8373741 15.439676 4.9375 15.644531 C 5.6822393 17.086921 6.8573101 18.255196 8.2910156 19.013672 L 8.3925781 19.066406 C 9.509537 19.642098 10.747328 19.944319 12.003906 19.949219 C 13.395827 19.948416 14.704829 19.483722 15.900391 18.798828 L 10.611328 13.509766 z " /><g
   id="path13853"
   transform="translate(40)" /></svg>
