<?xml version="1.0" encoding="UTF-8" standalone="no"?>
<svg
   xmlns:dc="http://purl.org/dc/elements/1.1/"
   xmlns:cc="http://creativecommons.org/ns#"
   xmlns:rdf="http://www.w3.org/1999/02/22-rdf-syntax-ns#"
   xmlns:svg="http://www.w3.org/2000/svg"
   xmlns="http://www.w3.org/2000/svg"
   xmlns:sodipodi="http://sodipodi.sourceforge.net/DTD/sodipodi-0.dtd"
   xmlns:inkscape="http://www.inkscape.org/namespaces/inkscape"
   width="24"
   height="24"
   viewBox="0 0 24 24"
   version="1.1"
   id="svg4"
   sodipodi:docname="lock_database.svg"
   inkscape:version="0.92.4 (5da689c313, 2019-01-14)">
  <metadata
     id="metadata10">
    <rdf:RDF>
      <cc:Work
         rdf:about="">
        <dc:format>image/svg+xml</dc:format>
        <dc:type
           rdf:resource="http://purl.org/dc/dcmitype/StillImage" />
        <dc:title></dc:title>
      </cc:Work>
    </rdf:RDF>
  </metadata>
  <defs
     id="defs8" />
  <sodipodi:namedview
     pagecolor="#c8c8c8"
     bordercolor="#666666"
     borderopacity="1"
     objecttolerance="10"
     gridtolerance="10"
     guidetolerance="10"
     inkscape:pageopacity="0.28235294"
     inkscape:pageshadow="2"
     inkscape:window-width="1920"
     inkscape:window-height="1016"
     id="namedview6"
     showgrid="true"
     inkscape:zoom="5.6568545"
     inkscape:cx="-13.854898"
     inkscape:cy="0.1169132"
     inkscape:window-x="1920"
     inkscape:window-y="27"
     inkscape:window-maximized="1"
     inkscape:current-layer="svg4">
    <inkscape:grid
       type="xygrid"
       id="grid818" />
  </sodipodi:namedview>
  <path
     style="fill:#ffffff"
     d="M 11 2.0566406 C 6.762335 2.4220229 3.0067094 5.7987155 2.203125 9.9785156 C 1.3601753 13.960549 3.1781148 18.394742 6.7089844 20.480469 C 9.6237318 22.368157 13.514425 22.492178 16.582031 20.892578 C 17.959775 20.180473 19.316015 19.099467 20.087891 17.808594 L 18.402344 16.791016 C 16.277892 19.724364 12.039121 20.844605 8.7519531 19.306641 C 5.481064 17.911182 3.4461934 14.150571 4.109375 10.648438 C 4.6649664 7.2806969 7.5784749 4.4226117 11 4.0839844 L 11 2.0566406 z M 13 2.0644531 L 13 4.09375 C 16.367309 4.4801387 19.308002 7.2166099 19.861328 10.574219 C 20.123352 12.069186 19.935398 13.632674 19.367188 15.037109 C 19.94644 15.387646 20.527063 15.73602 21.105469 16.087891 C 22.671737 12.714066 22.120988 8.4920871 19.708984 5.6542969 C 18.063396 3.6246553 15.604973 2.2995704 13 2.0644531 z M 12 6.7148438 C 10.737143 6.7148437 9.7148438 7.737143 9.7148438 9 L 9.7148438 10.142578 L 9.1425781 10.142578 C 8.5140068 10.142578 8 10.656585 8 11.285156 L 8 15.857422 C 8 16.491709 8.5140068 17 9.1425781 17 L 14.857422 17 C 15.491709 17 16 16.491709 16 15.857422 L 16 11.285156 C 16 10.656585 15.491709 10.142578 14.857422 10.142578 L 14.285156 10.142578 L 14.285156 9 C 14.285156 7.737143 13.262857 6.7148438 12 6.7148438 z M 12 7.8574219 C 12.634286 7.8574219 13.142578 8.3714294 13.142578 9 L 13.142578 10.142578 L 10.857422 10.142578 L 10.857422 9 C 10.857422 8.3714294 11.371429 7.8574219 12 7.8574219 z M 12 12.427734 C 12.634286 12.427734 13.142578 12.943693 13.142578 13.572266 C 13.142578 14.20655 12.634286 14.714844 12 14.714844 C 11.371429 14.714844 10.857422 14.20655 10.857422 13.572266 C 10.857422 12.943693 11.371429 12.427734 12 12.427734 z "
     id="path868" />
</svg>
