<?xml version="1.0" encoding="UTF-8" standalone="no"?>
<svg
   xmlns:dc="http://purl.org/dc/elements/1.1/"
   xmlns:cc="http://creativecommons.org/ns#"
   xmlns:rdf="http://www.w3.org/1999/02/22-rdf-syntax-ns#"
   xmlns:svg="http://www.w3.org/2000/svg"
   xmlns="http://www.w3.org/2000/svg"
   xmlns:sodipodi="http://sodipodi.sourceforge.net/DTD/sodipodi-0.dtd"
   xmlns:inkscape="http://www.inkscape.org/namespaces/inkscape"
   width="24"
   height="24"
   viewBox="0 0 24 24"
   version="1.1"
   id="svg4"
   sodipodi:docname="merge_database.svg"
   inkscape:version="0.92.4 (5da689c313, 2019-01-14)">
  <metadata
     id="metadata10">
    <rdf:RDF>
      <cc:Work
         rdf:about="">
        <dc:format>image/svg+xml</dc:format>
        <dc:type
           rdf:resource="http://purl.org/dc/dcmitype/StillImage" />
        <dc:title></dc:title>
      </cc:Work>
    </rdf:RDF>
  </metadata>
  <defs
     id="defs8" />
  <sodipodi:namedview
     pagecolor="#c8c8c8"
     bordercolor="#666666"
     borderopacity="1"
     objecttolerance="10"
     gridtolerance="10"
     guidetolerance="10"
     inkscape:pageopacity="0.28235294"
     inkscape:pageshadow="2"
     inkscape:window-width="1920"
     inkscape:window-height="1016"
     id="namedview6"
     showgrid="true"
     inkscape:zoom="22.627418"
     inkscape:cx="4.5821118"
     inkscape:cy="13.022387"
     inkscape:window-x="1920"
     inkscape:window-y="27"
     inkscape:window-maximized="1"
     inkscape:current-layer="svg4">
    <inkscape:grid
       type="xygrid"
       id="grid818" />
  </sodipodi:namedview>
  <path
     style="fill:#ffffff"
     d="M 11 2.0566406 C 6.762335 2.4220229 3.0067094 5.7987155 2.203125 9.9785156 C 1.3601754 13.960549 3.1781148 18.394742 6.7089844 20.480469 C 9.6237318 22.368157 13.514425 22.492178 16.582031 20.892578 C 17.959775 20.180473 19.316015 19.099467 20.087891 17.808594 L 18.402344 16.791016 C 16.277892 19.724364 12.039121 20.844607 8.7519531 19.306641 C 5.4810648 17.911181 3.4461927 14.150571 4.109375 10.648438 C 4.6649663 7.2806968 7.5784749 4.4226117 11 4.0839844 L 11 2.0566406 z M 13 2.0644531 L 13 4.09375 C 16.367309 4.4801388 19.308004 7.2166096 19.861328 10.574219 C 20.123351 12.069186 19.935388 13.632673 19.367188 15.037109 C 19.94644 15.387646 20.527063 15.73602 21.105469 16.087891 C 22.671735 12.714066 22.12099 8.4920873 19.708984 5.6542969 C 18.063396 3.6246553 15.604973 2.2995703 13 2.0644531 z M 9 6 L 7.5859375 7.4140625 L 11 10.828125 L 11 13 L 7 13 L 12 18 L 17 13 L 13 13 L 13 10 L 12.910156 10 L 12.955078 9.9550781 L 9 6 z M 15.541016 6 L 12.769531 8.7695312 L 14.183594 10.183594 L 16.955078 7.4140625 L 15.541016 6 z "
     id="path868" />
</svg>
